<svg width="38" height="46" viewBox="0 0 38 46" fill="none" xmlns="http://www.w3.org/2000/svg">
<path fill-rule="evenodd" clip-rule="evenodd" d="M1.00006 11.9056L1 40.1332C1 42.8591 3.20976 45.0689 5.93564 45.0689H32.6228C35.3486 45.0689 37.5584 42.8591 37.5584 40.1332L37.5585 5.08872C37.5585 2.36284 35.3487 0.153078 32.6228 0.153076H12.7526L1.00006 11.9056Z" fill="url(#paint0_linear_1503_484)"/>
<rect x="5.59558" y="25.0532" width="27.3673" height="15.5135" rx="3" fill="white"/>
<path d="M14.8281 30.815L15.8467 30.0087C15.6981 29.8177 15.5178 29.6479 15.3056 29.4994C15.0934 29.3615 14.8599 29.2448 14.6265 29.1493C14.3825 29.0538 14.1278 28.9795 13.8732 28.9371C13.608 28.8946 13.3533 28.8628 13.1199 28.8628C12.5363 28.8628 11.9952 28.9583 11.5072 29.1387C11.0085 29.3296 10.5735 29.5843 10.2128 29.9238C9.85201 30.2633 9.56554 30.6771 9.35334 31.1652C9.14114 31.6532 9.04565 32.1943 9.04565 32.7885C9.04565 33.3827 9.14114 33.9132 9.34273 34.4012C9.53371 34.8893 9.80957 35.3031 10.1703 35.6532C10.5204 36.0033 10.9448 36.2792 11.4329 36.4702C11.921 36.6611 12.4621 36.7566 13.0562 36.7566C13.6928 36.7566 14.2552 36.6505 14.7432 36.4171C15.2207 36.1837 15.6239 35.8654 15.9634 35.441L14.8918 34.6877C14.7008 34.9529 14.4461 35.1651 14.1385 35.3243C13.8202 35.4834 13.47 35.5577 13.0668 35.5577C12.6743 35.5577 12.3241 35.494 12.0165 35.3561C11.6982 35.2288 11.4329 35.0378 11.2101 34.7938C10.9873 34.5498 10.8175 34.2527 10.7008 33.9132C10.5735 33.5736 10.5204 33.2023 10.5204 32.7885C10.5204 32.4065 10.5735 32.0458 10.7008 31.7063C10.8281 31.3774 10.9979 31.0909 11.2313 30.8363C11.4647 30.5922 11.7406 30.4012 12.0589 30.2527C12.3772 30.1148 12.7273 30.0405 13.1199 30.0405C13.417 30.0405 13.7353 30.1042 14.0536 30.2315C14.3719 30.3588 14.6265 30.5498 14.8281 30.815Z" fill="url(#paint1_linear_1503_484)"/>
<path d="M20.8858 30.6241L21.7558 29.6692C21.4587 29.4039 21.1192 29.2023 20.7266 29.0644C20.334 28.9371 19.9521 28.8628 19.5701 28.8628C19.2306 28.8628 18.8911 28.9158 18.5622 29.0007C18.2333 29.0856 17.9362 29.2235 17.6815 29.4039C17.4269 29.5843 17.2147 29.8071 17.0556 30.0829C16.8964 30.3588 16.8221 30.6877 16.8221 31.0697C16.8221 31.4304 16.8752 31.7275 16.9919 31.9609C17.098 32.1943 17.2465 32.3959 17.4269 32.5551C17.6073 32.7248 17.8089 32.8522 18.0423 32.9476C18.2651 33.0537 18.4879 33.1386 18.7213 33.2023L19.3898 33.4251C19.602 33.4994 19.7823 33.5842 19.9415 33.6797C20.09 33.7752 20.2173 33.8919 20.3128 34.0193C20.3977 34.1466 20.4508 34.3163 20.4508 34.5073C20.4508 34.7195 20.4083 34.8893 20.3234 35.0272C20.2386 35.1651 20.1325 35.2818 20.0051 35.3667C19.8778 35.4622 19.7293 35.5259 19.5701 35.5683C19.4004 35.6108 19.2412 35.6214 19.0927 35.6214C18.7956 35.6214 18.4879 35.5471 18.1802 35.3986C17.8725 35.25 17.6285 35.0484 17.4481 34.7938L16.4932 35.685C16.7903 36.0458 17.1723 36.311 17.6391 36.4914C18.1059 36.6718 18.5834 36.7566 19.0715 36.7566C19.4322 36.7566 19.7823 36.7142 20.1218 36.6081C20.4508 36.5126 20.7372 36.3641 20.9919 36.1625C21.2359 35.9715 21.4375 35.7169 21.586 35.4198C21.7346 35.1227 21.8088 34.762 21.8088 34.3588C21.8088 33.998 21.7346 33.6903 21.5966 33.4357C21.4587 33.1917 21.2783 32.9901 21.0661 32.8203C20.8539 32.6612 20.6099 32.5339 20.3553 32.4278C20.1006 32.3323 19.846 32.2474 19.6126 32.1625C19.4004 32.0988 19.1988 32.0352 19.029 31.9715C18.8486 31.9079 18.7001 31.8336 18.5728 31.7487C18.4455 31.6638 18.35 31.5683 18.2863 31.441C18.212 31.3243 18.1802 31.1758 18.1802 31.006C18.1802 30.8256 18.212 30.6665 18.2969 30.5392C18.3818 30.4119 18.4879 30.3058 18.6152 30.2209C18.7425 30.136 18.8805 30.0829 19.0396 30.0405C19.1882 29.9981 19.3473 29.9768 19.5065 29.9768C19.7611 29.9768 20.0264 30.0405 20.281 30.1678C20.5356 30.2951 20.7372 30.4437 20.8858 30.6241Z" fill="url(#paint2_linear_1503_484)"/>
<path d="M22.3722 29.0538L25.343 36.5657H26.4995L29.5128 29.0538H28.0698L25.9796 34.8362H25.9372L23.8683 29.0538H22.3722Z" fill="url(#paint3_linear_1503_484)"/>
<path fill-rule="evenodd" clip-rule="evenodd" d="M0.943882 11.8408L12.7476 0.0370836L12.7499 0.0482388L12.7499 6.90518C12.7499 9.63106 10.5401 11.8408 7.81424 11.8408L0.943882 11.8408Z" fill="url(#paint4_linear_1503_484)"/>
<defs>
<linearGradient id="paint0_linear_1503_484" x1="19.2792" y1="0.153076" x2="19.2792" y2="45.0688" gradientUnits="userSpaceOnUse">
<stop stop-color="#00B8F0"/>
<stop offset="0.0001" stop-color="#00B8F0"/>
<stop offset="0.739583" stop-color="#B2EEFC"/>
</linearGradient>
<linearGradient id="paint1_linear_1503_484" x1="19.2792" y1="28.8628" x2="19.2792" y2="36.7566" gradientUnits="userSpaceOnUse">
<stop stop-color="#F86CA2"/>
<stop offset="1" stop-color="#FA9EC2"/>
</linearGradient>
<linearGradient id="paint2_linear_1503_484" x1="19.2792" y1="28.8628" x2="19.2792" y2="36.7566" gradientUnits="userSpaceOnUse">
<stop stop-color="#F86CA2"/>
<stop offset="1" stop-color="#FA9EC2"/>
</linearGradient>
<linearGradient id="paint3_linear_1503_484" x1="19.2792" y1="28.8628" x2="19.2792" y2="36.7566" gradientUnits="userSpaceOnUse">
<stop stop-color="#F86CA2"/>
<stop offset="1" stop-color="#FA9EC2"/>
</linearGradient>
<linearGradient id="paint4_linear_1503_484" x1="6.84685" y1="11.8408" x2="6.84685" y2="0.0370297" gradientUnits="userSpaceOnUse">
<stop stop-color="#1792C7"/>
<stop offset="1" stop-color="#00B8F0"/>
</linearGradient>
</defs>
</svg>
