<svg width="74" height="74" viewBox="0 0 74 74" fill="none" xmlns="http://www.w3.org/2000/svg">
<path d="M35.9376 48.1003C36.0063 48.0985 36.0753 48.0977 36.1445 48.0977C40.5503 48.0977 44.1216 51.6563 44.1216 56.0462C44.1216 57.6925 43.6194 59.2218 42.7593 60.4904C41.9239 61.7226 40.7508 62.7088 39.3724 63.3172C38.3855 63.7528 37.2934 63.9948 36.1445 63.9948C31.7387 63.9948 28.1674 60.4362 28.1674 56.0463C28.1674 51.7252 31.6274 48.2096 35.9376 48.1003Z" fill="url(#paint0_linear_1503_503)"/>
<path d="M36.1478 5.62402C38.3558 5.62318 40.3315 7.17061 40.7833 9.41079C41.2977 11.9633 39.6386 14.4485 37.0769 14.9614C36.9461 14.9875 36.8154 15.0081 36.6852 15.0231C34.2652 15.3031 31.9947 13.6906 31.506 11.2679C30.9911 8.71534 32.6507 6.23022 35.2124 5.71732C35.5264 5.65446 35.8394 5.62414 36.1478 5.62402Z" fill="url(#paint1_linear_1503_503)"/>
<path d="M58.7405 45.3239L59.9767 46.3508C61.2674 47.423 62.0816 48.9467 62.265 50.5929C62.2912 50.8281 62.3045 51.0657 62.3045 51.3049C62.3045 51.3048 62.3045 51.3051 62.3045 51.3049L62.3046 51.3697C62.3046 51.397 62.3044 51.4244 62.304 51.4517C62.3033 51.5042 62.302 51.5566 62.3001 51.6088C62.1739 55.0208 59.358 57.7484 55.9024 57.7484H16.3868C12.8508 57.7484 9.98462 54.8925 9.98462 51.3697C9.98462 49.4192 10.8706 47.5735 12.3941 46.3491L13.6635 45.3285C16.5998 42.9689 18.3073 39.4118 18.3073 35.653V28.9491C18.3073 20.0732 24.7868 12.7056 33.2898 11.2866C34.2624 11.1238 35.2615 11.0388 36.2807 11.0388C45.8967 11.0388 53.7494 18.5641 54.2308 28.0265C54.2385 28.1792 54.2444 28.3323 54.2483 28.4859C54.2522 28.6398 54.2542 28.7942 54.2542 28.9491V35.7769C54.2542 35.8054 54.2543 35.8339 54.2545 35.8624C54.2559 36.0639 54.2622 36.2649 54.2733 36.4651C54.4643 39.897 56.0754 43.1094 58.7405 45.3239Z" fill="url(#paint2_linear_1503_503)"/>
<path d="M63.6732 19.0275C63.6732 13.0601 58.8358 8.22241 52.8683 8.22241C46.9008 8.22241 42.063 13.0601 42.063 19.0275C42.063 24.9949 46.9008 29.8326 52.8683 29.8326C58.8358 29.8326 63.6732 24.9949 63.6732 19.0275Z" fill="url(#paint3_linear_1503_503)"/>
<path d="M53.0738 23.9389C52.6447 23.9389 52.2969 23.6102 52.2969 23.2045V16.1208L52.0072 16.371C51.6902 16.6443 51.1988 16.623 50.9099 16.3231C50.6209 16.0235 50.6434 15.5589 50.9605 15.2856L52.5503 13.9149C52.7778 13.719 53.1057 13.6682 53.3875 13.7857C53.669 13.9032 53.8504 14.1665 53.8504 14.4576V23.2045C53.8504 23.6102 53.5026 23.9389 53.0738 23.9389Z" fill="white"/>
<defs>
<linearGradient id="paint0_linear_1503_503" x1="36.1445" y1="48.0977" x2="36.1445" y2="63.9948" gradientUnits="userSpaceOnUse">
<stop stop-color="#1792C7"/>
<stop offset="1" stop-color="#00B8F0"/>
</linearGradient>
<linearGradient id="paint1_linear_1503_503" x1="36.1446" y1="5.62402" x2="36.1446" y2="15.0547" gradientUnits="userSpaceOnUse">
<stop stop-color="#1792C7"/>
<stop offset="1" stop-color="#00B8F0"/>
</linearGradient>
<linearGradient id="paint2_linear_1503_503" x1="36.1446" y1="11.0388" x2="36.1446" y2="57.7484" gradientUnits="userSpaceOnUse">
<stop stop-color="#00B8F0"/>
<stop offset="0.0001" stop-color="#00B8F0"/>
<stop offset="0.739583" stop-color="#B2EEFC"/>
</linearGradient>
<linearGradient id="paint3_linear_1503_503" x1="52.8681" y1="8.22241" x2="52.8681" y2="29.8326" gradientUnits="userSpaceOnUse">
<stop stop-color="#F86CA2"/>
<stop offset="1" stop-color="#FA9EC2"/>
</linearGradient>
</defs>
</svg>
