<svg width="174" height="160" viewBox="0 0 174 160" fill="none" xmlns="http://www.w3.org/2000/svg">
<g clip-path="url(#clip0_1503_138)">
<path d="M82.0249 35.4395L96.8091 41.0335L102 155.473L-7.99991 106.472L82.0249 35.4395Z" fill="url(#paint0_linear_1503_138)"/>
<path fill-rule="evenodd" clip-rule="evenodd" d="M58.1085 84.6276C57.7996 86.4926 58.2245 88.9157 60.4507 91.7227C62.8143 94.7028 63.3628 97.2413 62.9944 99.2367C62.6291 101.215 61.3782 102.566 60.3189 103.211L59.799 102.356C60.6564 101.834 61.7056 100.71 62.0111 99.0551C62.3135 97.4172 61.9037 95.164 59.6672 92.3441C57.2935 89.3511 56.76 86.6492 57.1219 84.4642C57.4804 82.2998 58.7073 80.7063 59.7508 79.8896L60.3671 80.6772C59.494 81.3605 58.4208 82.742 58.1085 84.6276Z" fill="white"/>
<path fill-rule="evenodd" clip-rule="evenodd" d="M65.0686 84.6276C64.7597 86.4926 65.1845 88.9157 67.4108 91.7227C69.7744 94.7028 70.3229 97.2413 69.9545 99.2367C69.5892 101.215 68.3383 102.566 67.279 103.211L66.7591 102.356C67.6165 101.834 68.6656 100.71 68.9711 99.0551C69.2736 97.4172 68.8638 95.164 66.6273 92.3441C64.2536 89.3511 63.7201 86.6492 64.082 84.4642C64.4405 82.2998 65.6674 80.7063 66.7109 79.8896L67.3272 80.6772C66.454 81.3605 65.3809 82.742 65.0686 84.6276Z" fill="white"/>
<path fill-rule="evenodd" clip-rule="evenodd" d="M72.0284 84.6276C71.7195 86.4926 72.1444 88.9157 74.3706 91.7227C76.7342 94.7028 77.2828 97.2413 76.9144 99.2367C76.549 101.215 75.2982 102.566 74.2389 103.211L73.7189 102.356C74.5763 101.834 75.6255 100.71 75.931 99.0551C76.2334 97.4172 75.8236 95.164 73.5872 92.3441C71.2134 89.3511 70.6799 86.6492 71.0419 84.4642C71.4004 82.2998 72.6272 80.7063 73.6707 79.8896L74.2871 80.6772C73.4139 81.3605 72.3407 82.742 72.0284 84.6276Z" fill="white"/>
<path fill-rule="evenodd" clip-rule="evenodd" d="M51.0421 127.472L51.0421 119.472L47.0421 119.472C44.833 119.472 43.0421 121.263 43.0421 123.472C43.0421 125.681 44.833 127.472 47.0421 127.472L51.0421 127.472ZM55.0421 115.472L47.0421 115.472C42.6239 115.472 39.0421 119.054 39.0421 123.472C39.0421 127.89 42.6239 131.472 47.0421 131.472L55.0421 131.472L55.0421 115.472Z" fill="url(#paint1_linear_1503_138)"/>
<path fill-rule="evenodd" clip-rule="evenodd" d="M157.273 92.263L126.303 141.914L129.697 144.031L161.727 92.6813L140.985 39.2708L116.965 33.527L116.035 37.4173L138.015 42.6735L157.273 92.263Z" fill="#B2EEFC"/>
<rect x="104.5" y="139.472" width="51.5" height="8" rx="4" fill="#B2EEFC"/>
<ellipse cx="89.0505" cy="37.9555" rx="8.11419" ry="8.11419" transform="rotate(30 89.0505 37.9555)" fill="white"/>
<circle cx="139.25" cy="41.4556" r="3.5" fill="#2D3238"/>
<circle cx="158.684" cy="92.6816" r="3.5" fill="#2D3238"/>
<path d="M59.0448 24.0936C65.2343 6.95723 84.1437 -1.91702 101.28 4.27244C118.416 10.4619 127.291 29.3713 121.101 46.5076L120.453 48.3027C119.798 50.1154 117.798 51.0542 115.985 50.3994L60.4933 30.3565C58.6805 29.7017 57.7417 27.7014 58.3965 25.8886L59.0448 24.0936Z" fill="url(#paint2_linear_1503_138)"/>
<path d="M51.309 107.472H86.7921V138.601C86.7921 143.501 82.8206 147.472 77.9214 147.472H69.0506H60.1798C55.2806 147.472 51.309 143.501 51.309 138.601V107.472Z" fill="url(#paint3_linear_1503_138)"/>
</g>
<defs>
<linearGradient id="paint0_linear_1503_138" x1="87" y1="31.5336" x2="51" y2="124.534" gradientUnits="userSpaceOnUse">
<stop stop-color="#6FC7A1"/>
<stop offset="1" stop-color="white"/>
</linearGradient>
<linearGradient id="paint1_linear_1503_138" x1="55.0421" y1="123.472" x2="39.0421" y2="123.472" gradientUnits="userSpaceOnUse">
<stop stop-color="#FA9EC2"/>
<stop offset="1" stop-color="#FFDBEB"/>
</linearGradient>
<linearGradient id="paint2_linear_1503_138" x1="101.559" y1="4.03345" x2="88.2392" y2="40.378" gradientUnits="userSpaceOnUse">
<stop stop-color="#00B8F0"/>
<stop offset="0.0001" stop-color="#00B8F0"/>
<stop offset="1" stop-color="#B2EEFC"/>
</linearGradient>
<linearGradient id="paint3_linear_1503_138" x1="69.0506" y1="107.472" x2="69.0506" y2="147.472" gradientUnits="userSpaceOnUse">
<stop stop-color="#FA9EC2"/>
<stop offset="1" stop-color="#FFDBEB"/>
</linearGradient>
<clipPath id="clip0_1503_138">
<rect width="174" height="159" fill="white" transform="translate(0 0.0654297)"/>
</clipPath>
</defs>
</svg>
