<svg width="73" height="74" viewBox="0 0 73 74" fill="none" xmlns="http://www.w3.org/2000/svg">
<path d="M60.6976 33.0625L41.8501 9.29017C41.4907 8.83714 41.0886 8.44275 40.655 8.10706C39.4508 7.17439 38.003 6.69514 36.5485 6.66932C36.5071 6.66858 36.4657 6.66821 36.4243 6.66821C34.4046 6.6682 32.3848 7.54225 30.9988 9.29035L12.1508 33.0623L36.4242 57.9621L60.6976 33.0625Z" fill="url(#paint0_linear_1503_512)"/>
<path d="M17.6939 13.4114H54.2886V58.9106H17.6939V13.4114Z" fill="white"/>
<path d="M36.4242 53.6779L12.1508 33.0625V59.7593C12.1508 63.3791 15.0852 66.3135 18.7049 66.3135H54.1436C57.7633 66.3135 60.6977 63.3791 60.6977 59.7593V33.0625L36.4242 53.6779Z" fill="url(#paint1_linear_1503_512)"/>
<path d="M43.7392 33.5717C43.6192 33.8725 43.3157 34.5018 42.651 34.8997C42.425 35.035 42.0473 35.1829 41.5684 35.1829C41.3108 35.1829 41.1114 35.0214 41.0156 34.9249C40.7862 34.6944 40.6502 34.3545 40.6517 34.0158L40.665 31.3226C40.667 31.251 40.6694 31.1795 40.6694 31.1074C40.6694 31.062 40.6676 31.0174 40.6668 30.9725L40.6966 24.9329L38.5309 24.9222L38.5239 26.3553C37.8243 25.8565 36.9869 25.5764 36.0611 25.5764C33.6529 25.5764 31.162 27.6556 31.162 31.1354C31.162 34.3076 33.3163 36.8882 35.9643 36.8882C37.0824 36.8882 38.0969 36.431 38.8959 35.6587C39.051 35.9498 39.2471 36.2184 39.4804 36.4528C40.0554 37.0306 40.797 37.3488 41.5684 37.3488C43.7796 37.3488 45.1792 35.8111 45.7516 34.3721C46.6323 32.1583 46.7904 30.2916 46.264 28.3199C46.2609 28.3088 46.2578 28.2976 46.2544 28.2864C45.4586 25.6496 43.6783 23.4907 41.2411 22.2073C38.8044 20.924 36.0161 20.6774 33.3897 21.5137C30.9008 22.3057 28.8304 24.0138 27.5596 26.3227C26.2883 28.6324 25.954 31.2952 26.6182 33.8209C27.7646 38.1796 31.7063 41.3108 36.2039 41.4351L37.2864 41.465L37.3461 39.3001L36.2637 39.2702C32.7212 39.1722 29.6161 36.7049 28.7126 33.27C28.1905 31.2841 28.4547 29.1877 29.4567 27.3669C30.4587 25.5464 32.0888 24.2005 34.0465 23.5773C36.1156 22.9188 38.3125 23.1125 40.2317 24.1234C41.5365 24.8106 42.3351 25.6864 42.69 26.1165C43.5693 27.1824 43.9791 28.2436 44.1745 28.8908C44.3278 29.3742 44.5204 30.1923 44.4374 31.2084C44.3485 32.2953 43.9845 33.1145 43.7392 33.5717ZM35.9644 34.7227C34.6965 34.7227 33.3279 33.3512 33.3279 31.1355C33.3279 29.0115 34.7177 27.7423 36.0613 27.7423C37.4775 27.7423 38.471 29.0856 38.5009 31.0188L38.4995 31.3115C38.425 33.2103 37.3167 34.7227 35.9644 34.7227Z" fill="url(#paint2_linear_1503_512)"/>
<path d="M43.7401 33.5722C43.6198 33.8735 43.3159 34.5027 42.6507 34.9006C42.4245 35.0359 42.047 35.1829 41.5684 35.1829C41.3114 35.1829 41.1109 35.0217 41.0156 34.9249C40.7862 34.6944 40.6502 34.3545 40.6517 34.0158L40.6966 24.9329L38.5309 24.9222L38.5236 26.356C37.9172 25.9229 37.2054 25.6543 36.4243 25.5908V27.7724C37.6443 27.9818 38.4745 29.2538 38.5005 31.0181L38.4995 31.3115C38.4345 32.9892 37.5606 34.3663 36.4243 34.6623V36.8612C37.3599 36.7558 38.2087 36.3243 38.8959 35.6587C39.0504 35.9503 39.2465 36.2189 39.4804 36.4528C40.0554 37.0306 40.797 37.3488 41.5684 37.3488C43.7803 37.3488 45.1798 35.8116 45.7516 34.3721C46.6323 32.1587 46.791 30.2922 46.264 28.3199C46.2611 28.3084 46.2581 28.2979 46.2538 28.2864C45.4582 25.65 43.678 23.4901 41.2409 22.2065C39.7306 21.411 38.0832 21.0139 36.4243 21.0269V23.1926C37.7367 23.1811 39.0376 23.4944 40.2316 24.1224C41.5511 24.8165 42.3587 25.7095 42.719 26.1513C43.5784 27.2051 43.9813 28.2497 44.1747 28.8899C44.3191 29.4312 44.4816 30.3072 44.3653 31.3766C44.2607 32.3376 43.9708 33.0897 43.7401 33.5722ZM36.4243 41.441L37.2863 41.4641L37.3469 39.2998L36.4243 39.2738V41.441Z" fill="url(#paint3_linear_1503_512)"/>
<defs>
<linearGradient id="paint0_linear_1503_512" x1="36.4242" y1="6.66821" x2="36.4242" y2="57.9621" gradientUnits="userSpaceOnUse">
<stop stop-color="#00B8F0"/>
<stop offset="0.0001" stop-color="#00B8F0"/>
<stop offset="0.739583" stop-color="#B2EEFC"/>
</linearGradient>
<linearGradient id="paint1_linear_1503_512" x1="36.4242" y1="33.0625" x2="36.4242" y2="66.3135" gradientUnits="userSpaceOnUse">
<stop stop-color="#1792C7"/>
<stop offset="1" stop-color="#00B8F0"/>
</linearGradient>
<linearGradient id="paint2_linear_1503_512" x1="36.4251" y1="21.0266" x2="36.4251" y2="41.465" gradientUnits="userSpaceOnUse">
<stop stop-color="#F86CA2"/>
<stop offset="1" stop-color="#FA9EC2"/>
</linearGradient>
<linearGradient id="paint3_linear_1503_512" x1="36.4251" y1="21.0266" x2="36.4251" y2="41.465" gradientUnits="userSpaceOnUse">
<stop stop-color="#F86CA2"/>
<stop offset="1" stop-color="#FA9EC2"/>
</linearGradient>
</defs>
</svg>
