<svg width="101" height="163" viewBox="0 0 101 163" fill="none" xmlns="http://www.w3.org/2000/svg">
<path d="M29.2984 11.1297C29.5152 10.6436 30.103 10.4565 30.6112 10.7118L47.3524 19.1235C47.8606 19.3788 48.0967 19.9798 47.8799 20.4659L44.637 27.7348C44.4202 28.2209 43.8324 28.408 43.3242 28.1527L26.583 19.741C26.0748 19.4857 25.8387 18.8847 26.0555 18.3986L29.2984 11.1297Z" fill="url(#paint0_linear_1503_175)"/>
<path d="M39.8315 20.7748C39.0898 22.431 37.1186 23.0863 35.4288 22.2384C33.739 21.3905 32.9704 19.3604 33.7121 17.7042C34.4539 16.048 36.425 15.3927 38.1149 16.2406C39.8047 17.0885 40.5733 19.1186 39.8315 20.7748Z" fill="white"/>
<path d="M53.94 31.4386C53.4614 31.1201 53.3248 30.4964 53.635 30.0456L69.6493 6.76904C69.9595 6.31823 70.5989 6.21101 71.0775 6.52956L82.7789 14.3175C83.2575 14.6361 83.3941 15.2598 83.0839 15.7106L67.0696 38.9871C66.7594 39.4379 66.12 39.5451 65.6414 39.2266L53.94 31.4386Z" fill="url(#paint1_linear_1503_175)"/>
<path d="M70.7788 19.1045C73.1892 20.7169 73.9111 23.8247 72.3911 26.0459C70.8711 28.2671 67.6848 28.7607 65.2743 27.1483C62.8639 25.5359 62.142 22.4281 63.662 20.2069C65.182 17.9856 68.3683 17.4921 70.7788 19.1045Z" fill="white"/>
<path d="M94.8922 30.8902C95.3605 31.2193 95.4786 31.8453 95.1558 32.2884L84.0317 47.5604C83.7089 48.0035 83.0676 48.0959 82.5992 47.7668L75.2328 42.5909C74.7644 42.2617 74.6464 41.6357 74.9691 41.1926L86.0932 25.9206C86.416 25.4775 87.0573 25.3851 87.5257 25.7142L94.8922 30.8902Z" fill="url(#paint2_linear_1503_175)"/>
<path d="M83.319 39.3005C81.6902 38.151 81.2548 35.9985 82.3466 34.4927C83.4383 32.9868 85.6438 32.6979 87.2726 33.8474C88.9014 34.9969 89.3368 37.1494 88.245 38.6553C87.1532 40.1611 84.9478 40.45 83.319 39.3005Z" fill="white"/>
<path d="M36.9269 61.5318C37.3953 61.8609 37.5134 62.4869 37.1906 62.93L26.0664 78.202C25.7437 78.6452 25.1023 78.7376 24.6339 78.4085L17.2676 73.2325C16.7992 72.9034 16.6811 72.2774 17.0039 71.8343L28.1281 56.5623C28.4508 56.1192 29.0922 56.0268 29.5606 56.3559L36.9269 61.5318Z" fill="url(#paint3_linear_1503_175)"/>
<path d="M25.3535 69.9421C23.7247 68.7927 23.2894 66.6401 24.3811 65.1343C25.4729 63.6284 27.6784 63.3395 29.3072 64.489C30.9359 65.6385 31.3713 67.791 30.2795 69.2969C29.1878 70.8027 26.9823 71.0916 25.3535 69.9421Z" fill="white"/>
<path d="M20.9226 52.8863C20.3835 53.1182 19.7902 52.894 19.5974 52.3857L16.6239 44.5456C16.4311 44.0372 16.7118 43.4371 17.2508 43.2052L20.5137 41.8015C21.0527 41.5696 21.646 41.7937 21.8388 42.3021L24.8123 50.1422C25.0051 50.6505 24.7245 51.2506 24.1854 51.4825L20.9226 52.8863Z" fill="url(#paint4_linear_1503_175)"/>
<path d="M20.144 45.9325C21.0728 45.5295 22.0874 45.8991 22.4102 46.7578C22.733 47.6166 22.2418 48.6394 21.313 49.0424C20.3842 49.4453 19.3695 49.0758 19.0467 48.217C18.7239 47.3583 19.2152 46.3354 20.144 45.9325Z" fill="white"/>
<path d="M67.7995 52.8006C68.1875 52.4029 68.8183 52.4017 69.2083 52.7978L79.6947 63.4475C80.0847 63.8437 80.0864 64.4872 79.6983 64.8848L75.0901 69.6071C74.7021 70.0048 74.0713 70.006 73.6812 69.6099L63.1949 58.9602C62.8048 58.564 62.8032 57.9205 63.1912 57.5229L67.7995 52.8006Z" fill="url(#paint5_linear_1503_175)"/>
<path d="M73.2766 62.9629C72.1851 64.0814 70.4348 64.109 69.367 63.0248C68.2993 61.9405 68.3186 60.1548 69.41 59.0363C70.5015 57.9179 72.2519 57.8902 73.3196 58.9745C74.3874 60.0588 74.3681 61.8445 73.2766 62.9629Z" fill="white"/>
<path fill-rule="evenodd" clip-rule="evenodd" d="M100.37 44.3829C100.609 44.7801 100.48 45.2952 100.083 45.5336C97.1696 47.2815 93.7829 48.1526 90.3929 48.707C88.6947 48.9848 86.979 49.1854 85.31 49.3732C85.1261 49.3939 84.9429 49.4144 84.7603 49.4349C83.2789 49.6008 81.8418 49.7618 80.4666 49.9647C79.2912 50.1381 78.1189 50.2961 76.9529 50.4532C70.1899 51.3645 63.6375 52.2474 57.9023 55.955C52.539 59.4222 47.7907 65.589 45.8049 71.7268C44.4399 75.946 45.4104 79.1632 47.4247 83.1326C47.6343 83.5456 47.4693 84.0504 47.0563 84.26C46.6432 84.4696 46.1385 84.3047 45.9289 83.8916C43.8327 79.7609 42.6438 76.0483 44.209 71.2105C46.3136 64.7054 51.3039 58.2233 56.9917 54.5463C63.069 50.6176 70.0442 49.6836 76.7942 48.7797C77.9451 48.6256 79.0895 48.4724 80.2218 48.3053C81.628 48.0978 83.0959 47.9334 84.5729 47.768C84.756 47.7475 84.9392 47.727 85.1225 47.7064C86.7912 47.5186 88.4696 47.322 90.1221 47.0517C93.4336 46.51 96.5753 45.6819 99.2198 44.0952C99.617 43.8569 100.132 43.9857 100.37 44.3829Z" fill="#FFDBEB"/>
<path fill-rule="evenodd" clip-rule="evenodd" d="M41.5751 9.65629C41.9026 9.32876 42.4337 9.32876 42.7612 9.65629C47.9747 14.8699 52.7911 22.118 53.6672 29.7108C54.7201 38.8363 52.177 47.4924 49.7004 55.9223C49.3171 57.2268 48.9355 58.5259 48.569 59.8205C48.2226 61.0438 47.846 62.2522 47.4711 63.4552C46.7396 65.8024 46.0147 68.1284 45.5344 70.502C44.8174 74.0451 44.6907 77.5281 45.9606 80.9672C46.121 81.4017 45.8988 81.884 45.4643 82.0445C45.0298 82.2049 44.5475 81.9827 44.387 81.5482C42.969 77.7077 43.1397 73.8787 43.8903 70.1693C44.3869 67.7156 45.1577 65.2397 45.9045 62.8406C46.2724 61.659 46.6344 60.496 46.955 59.3636C47.3294 58.0412 47.7154 56.725 48.1002 55.4125C50.579 46.9593 53.0117 38.6634 52.0009 29.903C51.1857 22.8385 46.6546 15.9219 41.5751 10.8424C41.2476 10.5148 41.2476 9.98381 41.5751 9.65629Z" fill="#FFDBEB"/>
<path fill-rule="evenodd" clip-rule="evenodd" d="M9.10686 48.5726C9.52115 48.3655 10.0249 48.5334 10.2321 48.9477C10.3916 49.2667 10.8302 49.6129 11.5544 49.9628C12.0379 50.1965 12.5268 50.3792 12.9941 50.5538C13.213 50.6356 13.4272 50.7156 13.634 50.7983C16.2755 51.8549 18.5817 52.5571 21.37 53.091C22.1802 53.2461 23.0133 53.3939 23.8595 53.5439C26.4146 53.997 29.0885 54.4711 31.6088 55.2341C34.9907 56.2579 38.2122 57.8299 40.7104 60.6657C43.2659 63.5666 44.5854 66.3926 45.1666 69.4169C45.7424 72.4128 45.5848 75.5644 45.2576 79.0812C45.2147 79.5424 44.8061 79.8815 44.3449 79.8386C43.8837 79.7957 43.5446 79.387 43.5875 78.9258C43.9134 75.4227 44.0467 72.4771 43.5194 69.7335C42.9976 67.0183 41.8198 64.4625 39.4518 61.7745C37.2355 59.2587 34.3387 57.813 31.1228 56.8395C28.7065 56.108 26.1751 55.659 23.6452 55.2101C22.78 55.0566 21.9148 54.9032 21.0546 54.7384C18.1504 54.1823 15.7413 53.4478 13.011 52.3557C12.8676 52.2983 12.6926 52.2328 12.4978 52.1599C12.0027 51.9746 11.38 51.7415 10.8245 51.4731C10.0645 51.1058 9.1609 50.556 8.73179 49.6978C8.52465 49.2835 8.69257 48.7798 9.10686 48.5726Z" fill="#FFDBEB"/>
<path d="M9.76919 115.159C9.06386 112.792 10.8364 110.414 13.3056 110.414H74.807C77.162 110.414 78.9144 112.59 78.4123 114.891L68.6289 159.727C68.259 161.422 66.7584 162.63 65.0235 162.63H26.6697C25.0376 162.63 23.5994 161.558 23.1332 159.994L9.76919 115.159Z" fill="url(#paint6_linear_1503_175)"/>
<path d="M0 83.1765C0 81.1385 1.65216 79.4863 3.6902 79.4863H84.0546C86.0926 79.4863 87.7448 81.1385 87.7448 83.1765V112.148C87.7448 114.186 86.0926 115.838 84.0546 115.838H3.6902C1.65216 115.838 0 114.186 0 112.148V83.1765Z" fill="#B2EEFC"/>
<path d="M39.51 4.53294C41.3707 2.96266 44.2133 3.1297 45.8592 4.90603C47.505 6.68236 47.3308 9.39532 45.4701 10.9656C43.6095 12.5359 40.7669 12.3688 39.121 10.5925C37.4752 8.81618 37.6493 6.10322 39.51 4.53294Z" fill="url(#paint7_linear_1503_175)"/>
<mask id="mask0_1503_175" style="mask-type:alpha" maskUnits="userSpaceOnUse" x="38" y="3" width="10" height="10">
<path d="M39.9678 4.9349C41.8018 3.38695 44.5311 3.47338 46.0639 5.12797C47.5967 6.78255 47.3526 9.37872 45.5186 10.9267C43.6846 12.4746 40.9553 12.3882 39.4225 10.7336C37.8897 9.07903 38.1338 6.48286 39.9678 4.9349Z" fill="#C4C4C4"/>
</mask>
<g mask="url(#mask0_1503_175)">
<path d="M38.083 5.3867L38.0881 3.40879C38.1213 2.91699 38.4695 2.51339 39.0398 2.62298L48.532 2.69043C48.8592 2.71479 49.0469 2.71925 49.226 2.91971L44.738 6.44442L38.9865 6.26607C38.5355 6.29012 38.0498 5.8785 38.083 5.3867Z" fill="url(#paint8_linear_1503_175)"/>
<path d="M44.5356 12.9219L46.5567 13.3093C47.0655 13.3756 47.5468 13.1281 47.548 12.5698L49.3615 3.62666C49.4015 3.314 49.4342 3.13651 49.265 2.92832L44.7751 6.45141L43.8166 11.8976C43.7026 12.317 44.0267 12.8556 44.5356 12.9219Z" fill="url(#paint9_linear_1503_175)"/>
<path d="M34.581 8.14207L34.5862 6.16416C34.6194 5.67236 34.9676 5.26876 35.5379 5.37835L45.03 5.4458C45.3572 5.47016 45.545 5.47462 45.724 5.67508L41.236 9.19979L35.4845 9.02144C35.0336 9.04549 34.5478 8.63387 34.581 8.14207Z" fill="url(#paint10_linear_1503_175)"/>
<path d="M41.0335 15.6775L43.0546 16.0649C43.5634 16.1312 44.0447 15.8837 44.0459 15.3255L45.8594 6.38227C45.8994 6.06961 45.9321 5.89212 45.7629 5.68394L41.273 9.20703L40.3146 14.6532C40.2006 15.0726 40.5246 15.6112 41.0335 15.6775Z" fill="url(#paint11_linear_1503_175)"/>
<path d="M31.212 10.7929L31.2172 8.81504C31.2504 8.32324 31.5986 7.91964 32.1689 8.02923L41.661 8.09668C41.9882 8.12104 42.1759 8.1255 42.355 8.32596L37.867 11.8507L32.1155 11.6723C31.6645 11.6964 31.1788 11.2847 31.212 10.7929Z" fill="url(#paint12_linear_1503_175)"/>
<path d="M37.6646 18.3284L39.6857 18.7158C40.1945 18.7821 40.6758 18.5346 40.677 17.9763L42.4905 9.03315C42.5305 8.72049 42.5632 8.543 42.394 8.33482L37.9041 11.8579L36.9457 17.3041C36.8317 17.7235 37.1557 18.2621 37.6646 18.3284Z" fill="url(#paint13_linear_1503_175)"/>
</g>
<path d="M32.8404 48.8638C34.7011 47.2935 37.5437 47.4605 39.1895 49.2368C40.8353 51.0132 40.6612 53.7261 38.8005 55.2964C36.9398 56.8667 34.0972 56.6997 32.4513 54.9233C30.8055 53.147 30.9797 50.434 32.8404 48.8638Z" fill="url(#paint14_linear_1503_175)"/>
<mask id="mask1_1503_175" style="mask-type:alpha" maskUnits="userSpaceOnUse" x="31" y="48" width="10" height="9">
<path d="M33.2981 49.2662C35.1321 47.7182 37.8614 47.8047 39.3942 49.4593C40.9271 51.1138 40.6829 53.71 38.8489 55.258C37.0149 56.8059 34.2856 56.7195 32.7528 55.0649C31.22 53.4103 31.4641 50.8142 33.2981 49.2662Z" fill="#C4C4C4"/>
</mask>
<g mask="url(#mask1_1503_175)">
<path d="M31.4134 49.7178L31.4186 47.7398C31.4518 47.248 31.8 46.8444 32.3703 46.954L41.8624 47.0215C42.1896 47.0458 42.3774 47.0503 42.5564 47.2508L38.0684 50.7755L32.3169 50.5971C31.8659 50.6212 31.3802 50.2096 31.4134 49.7178Z" fill="url(#paint15_linear_1503_175)"/>
<path d="M37.866 57.2532L39.8871 57.6406C40.396 57.7069 40.8772 57.4594 40.8784 56.9011L42.692 47.958C42.732 47.6453 42.7646 47.4678 42.5954 47.2596L38.1056 50.7827L37.1471 56.2289C37.0331 56.6483 37.3571 57.1869 37.866 57.2532Z" fill="url(#paint16_linear_1503_175)"/>
<path d="M27.9115 52.4731L27.9166 50.4952C27.9498 50.0034 28.298 49.5998 28.8683 49.7094L38.3605 49.7769C38.6877 49.8012 38.8754 49.8057 39.0544 50.0061L34.5664 53.5308L28.815 53.3525C28.364 53.3765 27.8783 52.9649 27.9115 52.4731Z" fill="url(#paint17_linear_1503_175)"/>
<path d="M34.3639 60.0088L36.385 60.3962C36.8939 60.4625 37.3751 60.215 37.3763 59.6567L39.1899 50.7136C39.2299 50.4009 39.2626 50.2234 39.0934 50.0152L34.6035 53.5383L33.645 58.9845C33.531 59.4039 33.8551 59.9425 34.3639 60.0088Z" fill="url(#paint18_linear_1503_175)"/>
<path d="M24.5425 55.124L24.5476 53.1461C24.5808 52.6543 24.929 52.2507 25.4993 52.3603L34.9914 52.4277C35.3187 52.4521 35.5064 52.4565 35.6854 52.657L31.1974 56.1817L25.4459 56.0034C24.995 56.0274 24.5093 55.6158 24.5425 55.124Z" fill="url(#paint19_linear_1503_175)"/>
<path d="M30.9951 62.6597L33.0161 63.0471C33.525 63.1134 34.0062 62.8659 34.0074 62.3076L35.821 53.3645C35.861 53.0518 35.8937 52.8743 35.7245 52.6661L31.2346 56.1892L30.2761 61.6353C30.1621 62.0548 30.4862 62.5934 30.9951 62.6597Z" fill="url(#paint20_linear_1503_175)"/>
</g>
<path d="M62.6632 42.3955C64.5239 40.8252 67.3665 40.9922 69.0124 42.7686C70.6582 44.5449 70.484 47.2579 68.6234 48.8281C66.7627 50.3984 63.9201 50.2314 62.2742 48.4551C60.6284 46.6787 60.8025 43.9658 62.6632 42.3955Z" fill="url(#paint21_linear_1503_175)"/>
<mask id="mask2_1503_175" style="mask-type:alpha" maskUnits="userSpaceOnUse" x="61" y="41" width="10" height="9">
<path d="M63.1208 42.7976C64.9548 41.2497 67.6842 41.3361 69.217 42.9907C70.7498 44.6452 70.5057 47.2414 68.6717 48.7893C66.8377 50.3372 64.1084 50.2508 62.5755 48.5962C61.0427 46.9417 61.2869 44.3456 63.1208 42.7976Z" fill="#C4C4C4"/>
</mask>
<g mask="url(#mask2_1503_175)">
<path d="M61.2359 43.2493L61.241 41.2714C61.2742 40.7796 61.6224 40.376 62.1927 40.4856L71.6848 40.5529C72.012 40.5773 72.1998 40.5817 72.3788 40.7822L67.8908 44.3069L62.1393 44.1286C61.6884 44.1527 61.2027 43.7411 61.2359 43.2493Z" fill="url(#paint22_linear_1503_175)"/>
<path d="M67.6887 50.7851L69.7099 51.1725C70.2188 51.2388 70.7001 50.9912 70.7013 50.4329L72.5154 41.489C72.5554 41.1763 72.5881 40.9988 72.4189 40.7906L67.9286 44.3141L66.9698 49.7607C66.8558 50.1802 67.1798 50.7188 67.6887 50.7851Z" fill="url(#paint23_linear_1503_175)"/>
<path d="M57.734 46.0047L57.7392 44.0268C57.7724 43.535 58.1206 43.1314 58.6909 43.2409L68.183 43.3083C68.5102 43.3327 68.698 43.3371 68.877 43.5376L64.389 47.0623L58.6375 46.884C58.1865 46.9081 57.7008 46.4965 57.734 46.0047Z" fill="url(#paint24_linear_1503_175)"/>
<path d="M64.1867 53.5403L66.2079 53.9277C66.7168 53.9939 67.1981 53.7464 67.1993 53.1881L69.0133 44.2446C69.0533 43.9319 69.086 43.7544 68.9168 43.5462L64.4265 47.0696L63.4677 52.516C63.3537 52.9354 63.6778 53.474 64.1867 53.5403Z" fill="url(#paint25_linear_1503_175)"/>
<path d="M54.3649 48.6555L54.3701 46.6776C54.4033 46.1858 54.7515 45.7822 55.3218 45.8918L64.8139 45.9592C65.1411 45.9835 65.3288 45.988 65.5078 46.1885L61.0198 49.7132L55.2684 49.5349C54.8174 49.559 54.3317 49.1473 54.3649 48.6555Z" fill="url(#paint26_linear_1503_175)"/>
<path d="M60.8175 56.1913L62.8387 56.5786C63.3476 56.6449 63.8289 56.3974 63.8301 55.8391L65.6442 46.8954C65.6842 46.5827 65.7169 46.4052 65.5477 46.197L61.0573 49.7204L60.0986 55.1669C59.9846 55.5864 60.3086 56.125 60.8175 56.1913Z" fill="url(#paint27_linear_1503_175)"/>
</g>
<defs>
<linearGradient id="paint0_linear_1503_175" x1="38.9818" y1="14.9177" x2="34.5476" y2="23.7428" gradientUnits="userSpaceOnUse">
<stop stop-color="#6FC7A1"/>
<stop offset="1" stop-color="#DBFBDF"/>
</linearGradient>
<linearGradient id="paint1_linear_1503_175" x1="61.6421" y1="18.4073" x2="74.9359" y2="27.5535" gradientUnits="userSpaceOnUse">
<stop stop-color="#6FC7A1"/>
<stop offset="1" stop-color="#DBFBDF"/>
</linearGradient>
<linearGradient id="paint2_linear_1503_175" x1="89.5938" y1="39.9244" x2="80.6423" y2="33.4041" gradientUnits="userSpaceOnUse">
<stop stop-color="#6FC7A1"/>
<stop offset="1" stop-color="#DBFBDF"/>
</linearGradient>
<linearGradient id="paint3_linear_1503_175" x1="31.6285" y1="70.566" x2="22.6771" y2="64.0458" gradientUnits="userSpaceOnUse">
<stop stop-color="#6FC7A1"/>
<stop offset="1" stop-color="#DBFBDF"/>
</linearGradient>
<linearGradient id="paint4_linear_1503_175" x1="18.1107" y1="48.4656" x2="23.4137" y2="46.4544" gradientUnits="userSpaceOnUse">
<stop stop-color="#6FC7A1"/>
<stop offset="1" stop-color="#DBFBDF"/>
</linearGradient>
<linearGradient id="paint5_linear_1503_175" x1="74.4515" y1="58.1227" x2="68.3175" y2="64.1626" gradientUnits="userSpaceOnUse">
<stop stop-color="#6FC7A1"/>
<stop offset="1" stop-color="#DBFBDF"/>
</linearGradient>
<linearGradient id="paint6_linear_1503_175" x1="44.0558" y1="110.414" x2="44.0558" y2="162.63" gradientUnits="userSpaceOnUse">
<stop stop-color="#00B8F0"/>
<stop offset="0.0001" stop-color="#00B8F0"/>
<stop offset="0.739583" stop-color="#B2EEFC"/>
</linearGradient>
<linearGradient id="paint7_linear_1503_175" x1="39.121" y1="10.5925" x2="45.5816" y2="4.6065" gradientUnits="userSpaceOnUse">
<stop stop-color="#1792C7"/>
<stop offset="1" stop-color="#00B8F0"/>
</linearGradient>
<linearGradient id="paint8_linear_1503_175" x1="39.0323" y1="6.78636" x2="46.6239" y2="0.00623609" gradientUnits="userSpaceOnUse">
<stop stop-color="#00B8F0"/>
<stop offset="0.0001" stop-color="#00B8F0"/>
<stop offset="0.739583" stop-color="#B2EEFC"/>
</linearGradient>
<linearGradient id="paint9_linear_1503_175" x1="43.2944" y1="11.7513" x2="51.2079" y2="5.31848" gradientUnits="userSpaceOnUse">
<stop stop-color="#00B8F0"/>
<stop offset="0.0001" stop-color="#00B8F0"/>
<stop offset="0.739583" stop-color="#B2EEFC"/>
</linearGradient>
<linearGradient id="paint10_linear_1503_175" x1="35.5303" y1="9.54173" x2="43.122" y2="2.76163" gradientUnits="userSpaceOnUse">
<stop stop-color="#00B8F0"/>
<stop offset="0.0001" stop-color="#00B8F0"/>
<stop offset="0.739583" stop-color="#B2EEFC"/>
</linearGradient>
<linearGradient id="paint11_linear_1503_175" x1="39.7923" y1="14.5069" x2="47.7058" y2="8.07412" gradientUnits="userSpaceOnUse">
<stop stop-color="#00B8F0"/>
<stop offset="0.0001" stop-color="#00B8F0"/>
<stop offset="0.739583" stop-color="#B2EEFC"/>
</linearGradient>
<linearGradient id="paint12_linear_1503_175" x1="32.1613" y1="12.1926" x2="39.753" y2="5.41251" gradientUnits="userSpaceOnUse">
<stop stop-color="#00B8F0"/>
<stop offset="0.0001" stop-color="#00B8F0"/>
<stop offset="0.739583" stop-color="#B2EEFC"/>
</linearGradient>
<linearGradient id="paint13_linear_1503_175" x1="36.4234" y1="17.1578" x2="44.3369" y2="10.725" gradientUnits="userSpaceOnUse">
<stop stop-color="#00B8F0"/>
<stop offset="0.0001" stop-color="#00B8F0"/>
<stop offset="0.739583" stop-color="#B2EEFC"/>
</linearGradient>
<linearGradient id="paint14_linear_1503_175" x1="32.4513" y1="54.9233" x2="38.912" y2="48.9373" gradientUnits="userSpaceOnUse">
<stop stop-color="#1792C7"/>
<stop offset="1" stop-color="#00B8F0"/>
</linearGradient>
<linearGradient id="paint15_linear_1503_175" x1="32.3627" y1="51.1174" x2="39.9544" y2="44.3373" gradientUnits="userSpaceOnUse">
<stop stop-color="#00B8F0"/>
<stop offset="0.0001" stop-color="#00B8F0"/>
<stop offset="0.739583" stop-color="#B2EEFC"/>
</linearGradient>
<linearGradient id="paint16_linear_1503_175" x1="36.6248" y1="56.0826" x2="44.5383" y2="49.6498" gradientUnits="userSpaceOnUse">
<stop stop-color="#00B8F0"/>
<stop offset="0.0001" stop-color="#00B8F0"/>
<stop offset="0.739583" stop-color="#B2EEFC"/>
</linearGradient>
<linearGradient id="paint17_linear_1503_175" x1="28.8608" y1="53.8728" x2="36.4524" y2="47.0927" gradientUnits="userSpaceOnUse">
<stop stop-color="#00B8F0"/>
<stop offset="0.0001" stop-color="#00B8F0"/>
<stop offset="0.739583" stop-color="#B2EEFC"/>
</linearGradient>
<linearGradient id="paint18_linear_1503_175" x1="33.1227" y1="58.8382" x2="41.0363" y2="52.4054" gradientUnits="userSpaceOnUse">
<stop stop-color="#00B8F0"/>
<stop offset="0.0001" stop-color="#00B8F0"/>
<stop offset="0.739583" stop-color="#B2EEFC"/>
</linearGradient>
<linearGradient id="paint19_linear_1503_175" x1="25.4917" y1="56.5237" x2="33.0834" y2="49.7436" gradientUnits="userSpaceOnUse">
<stop stop-color="#00B8F0"/>
<stop offset="0.0001" stop-color="#00B8F0"/>
<stop offset="0.739583" stop-color="#B2EEFC"/>
</linearGradient>
<linearGradient id="paint20_linear_1503_175" x1="29.7538" y1="61.4891" x2="37.6674" y2="55.0563" gradientUnits="userSpaceOnUse">
<stop stop-color="#00B8F0"/>
<stop offset="0.0001" stop-color="#00B8F0"/>
<stop offset="0.739583" stop-color="#B2EEFC"/>
</linearGradient>
<linearGradient id="paint21_linear_1503_175" x1="62.2742" y1="48.4551" x2="68.7348" y2="42.469" gradientUnits="userSpaceOnUse">
<stop stop-color="#1792C7"/>
<stop offset="1" stop-color="#00B8F0"/>
</linearGradient>
<linearGradient id="paint22_linear_1503_175" x1="62.1851" y1="44.6489" x2="69.7769" y2="37.8688" gradientUnits="userSpaceOnUse">
<stop stop-color="#00B8F0"/>
<stop offset="0.0001" stop-color="#00B8F0"/>
<stop offset="0.739583" stop-color="#B2EEFC"/>
</linearGradient>
<linearGradient id="paint23_linear_1503_175" x1="66.4475" y1="49.6144" x2="74.3619" y2="43.181" gradientUnits="userSpaceOnUse">
<stop stop-color="#00B8F0"/>
<stop offset="0.0001" stop-color="#00B8F0"/>
<stop offset="0.739583" stop-color="#B2EEFC"/>
</linearGradient>
<linearGradient id="paint24_linear_1503_175" x1="58.6833" y1="47.4043" x2="66.275" y2="40.6242" gradientUnits="userSpaceOnUse">
<stop stop-color="#00B8F0"/>
<stop offset="0.0001" stop-color="#00B8F0"/>
<stop offset="0.739583" stop-color="#B2EEFC"/>
</linearGradient>
<linearGradient id="paint25_linear_1503_175" x1="62.9454" y1="52.3697" x2="70.8596" y2="45.9362" gradientUnits="userSpaceOnUse">
<stop stop-color="#00B8F0"/>
<stop offset="0.0001" stop-color="#00B8F0"/>
<stop offset="0.739583" stop-color="#B2EEFC"/>
</linearGradient>
<linearGradient id="paint26_linear_1503_175" x1="55.3142" y1="50.0552" x2="62.9059" y2="43.275" gradientUnits="userSpaceOnUse">
<stop stop-color="#00B8F0"/>
<stop offset="0.0001" stop-color="#00B8F0"/>
<stop offset="0.739583" stop-color="#B2EEFC"/>
</linearGradient>
<linearGradient id="paint27_linear_1503_175" x1="59.5763" y1="55.0206" x2="67.4906" y2="48.5872" gradientUnits="userSpaceOnUse">
<stop stop-color="#00B8F0"/>
<stop offset="0.0001" stop-color="#00B8F0"/>
<stop offset="0.739583" stop-color="#B2EEFC"/>
</linearGradient>
</defs>
</svg>
