<svg width="461" height="474" viewBox="0 0 461 474" fill="none" xmlns="http://www.w3.org/2000/svg">
<path d="M150.209 429.049V373.438H108.66V323.025H150.209V282.487H108.66V218.041H150.209V57.9658H268.624C316.405 57.9658 351.202 67.6673 373.016 87.0704C395.175 106.473 406.255 133.153 406.255 167.108C406.255 187.204 401.754 206.087 392.751 223.758C383.749 241.428 368.687 255.634 347.567 266.375C326.792 277.116 298.401 282.487 262.391 282.487H228.633V323.025H308.615V373.438H228.633V429.049H150.209ZM228.633 218.041H254.601C276.76 218.041 294.246 214.23 307.057 206.607C320.214 198.984 326.792 186.684 326.792 169.707C326.792 138.177 306.018 122.412 264.469 122.412H228.633V218.041Z" fill="url(#paint0_linear_1503_313)"/>
<path fill-rule="evenodd" clip-rule="evenodd" d="M361.884 416.252C362.989 416.252 363.884 417.147 363.884 418.252V443.258C363.884 444.362 362.989 445.258 361.884 445.258H332.502L329.807 449.988C329.616 450.323 329.133 450.326 328.94 449.992L326.192 445.258H319.672C318.567 445.258 317.672 444.362 317.672 443.258V418.252C317.672 417.147 318.567 416.252 319.672 416.252H361.884Z" fill="url(#paint1_linear_1503_313)"/>
<line x1="1" y1="-1" x2="21.3528" y2="-1" transform="matrix(0.999448 -0.0332252 0.0291549 0.999575 281.983 433.776)" stroke="#FEF97A" stroke-width="2" stroke-linecap="round" stroke-linejoin="round"/>
<line x1="1" y1="-1" x2="10.2426" y2="-1" transform="matrix(0.997392 -0.0721745 0.0633621 0.997991 291.229 440.721)" stroke="#FEF97A" stroke-width="2" stroke-linecap="round" stroke-linejoin="round"/>
<line x1="1" y1="-1" x2="10.2426" y2="-1" transform="matrix(0.997392 -0.0721745 0.0633621 0.997991 292.569 426.003)" stroke="#FEF97A" stroke-width="2" stroke-linecap="round" stroke-linejoin="round"/>
<path d="M359.007 292.888C358.73 292.384 358.216 292.097 357.601 292.097H350.04C349.137 292.097 348.2 292.721 347.81 293.583L339.791 311.246C339.53 311.822 339.546 312.433 339.83 312.918C340.117 313.407 340.625 313.691 341.226 313.705L347.16 313.784L342.865 325.173C342.759 325.457 342.537 326.052 342.933 326.664C343.106 326.932 343.403 327.097 343.708 327.097H343.777C344.357 327.097 344.706 326.631 344.874 326.406L358.754 307.92C359.347 307.132 359.102 306.426 359.013 306.22C358.92 306.023 358.547 305.378 357.601 305.378H353.184L358.964 294.577C359.267 294.007 359.284 293.39 359.007 292.888Z" fill="#FEF97A"/>
<path fill-rule="evenodd" clip-rule="evenodd" d="M65.0031 112.479C66.1076 112.479 67.0031 113.375 67.0031 114.479V124.573C67.0031 125.677 66.1076 126.573 65.0031 126.573H50.1427L48.8822 128.573C48.687 128.883 48.2361 128.885 48.0383 128.576L46.7522 126.573H44.1748C43.0702 126.573 42.1748 125.677 42.1748 124.573V114.479C42.1748 113.375 43.0702 112.479 44.1748 112.479H65.0031Z" fill="url(#paint2_linear_1503_313)"/>
<line x1="0.5" y1="-0.5" x2="11.5084" y2="-0.5" transform="matrix(0.999549 -0.0300286 0.0322586 0.99948 23 120.995)" stroke="#FEF97A" stroke-linecap="round" stroke-linejoin="round"/>
<line x1="0.5" y1="-0.5" x2="5.53819" y2="-0.5" transform="matrix(0.997865 -0.0653065 0.0700276 0.997545 27.9678 124.368)" stroke="#FEF97A" stroke-linecap="round" stroke-linejoin="round"/>
<line x1="0.5" y1="-0.5" x2="5.53819" y2="-0.5" transform="matrix(0.997868 -0.0652661 0.0700709 0.997542 28.6877 117.217)" stroke="#FEF97A" stroke-linecap="round" stroke-linejoin="round"/>
<path d="M118.263 25.6339C117.986 25.1781 117.472 24.918 116.856 24.918H109.296C108.393 24.918 107.455 25.4829 107.066 26.2621L99.0472 42.2348C98.7853 42.7558 98.8015 43.3084 99.0862 43.7467C99.3729 44.1889 99.8804 44.4465 100.482 44.4588L106.416 44.5304L102.12 54.8292C102.015 55.0862 101.793 55.6245 102.188 56.1779C102.361 56.4206 102.658 56.5691 102.964 56.5691H103.033C103.613 56.5691 103.962 56.1475 104.13 55.9442L118.01 39.2271C118.602 38.515 118.358 37.8759 118.268 37.69C118.175 37.5118 117.803 36.9282 116.857 36.9282H112.44L118.22 27.1607C118.523 26.6455 118.54 26.0877 118.263 25.6339Z" fill="#FEF97A"/>
<g clip-path="url(#clip0_1503_313)">
<path d="M73.6959 193.139C73.5026 192.84 73.1446 192.669 72.7154 192.669H67.4458C66.8168 192.669 66.1632 193.04 65.8916 193.552L60.303 204.049C60.1205 204.391 60.1318 204.754 60.3302 205.042C60.5301 205.333 60.8838 205.502 61.3032 205.51L65.439 205.557L62.445 212.325C62.3714 212.494 62.2165 212.848 62.4924 213.211C62.6129 213.371 62.8198 213.468 63.0328 213.468H63.0811C63.485 213.468 63.7285 213.191 63.8453 213.058L73.5195 202.072C73.9323 201.604 73.762 201.184 73.6996 201.062C73.6349 200.945 73.375 200.561 72.7158 200.561H69.6375L73.6658 194.143C73.877 193.804 73.8887 193.438 73.6959 193.139Z" fill="#FEF97A"/>
</g>
<path fill-rule="evenodd" clip-rule="evenodd" d="M406.134 364.918C403.925 364.918 402.134 366.709 402.134 368.918V381.819C402.134 384.028 403.925 385.819 406.134 385.819H427.14L428.793 388.442C429.183 389.062 430.085 389.065 430.48 388.449L432.168 385.819H434.958C437.167 385.819 438.958 384.028 438.958 381.819V368.918C438.958 366.709 437.167 364.918 434.958 364.918H406.134Z" fill="url(#paint3_linear_1503_313)"/>
<line x1="0.5" y1="-0.5" x2="23.5016" y2="-0.5" transform="matrix(0.999548 -0.0300476 0.0322383 0.99948 368.127 377.615)" stroke="#FEF97A" stroke-linecap="round" stroke-linejoin="round"/>
<line x1="0.5" y1="-0.5" x2="11.5674" y2="-0.5" transform="matrix(0.997865 -0.0653071 0.070027 0.997545 378.056 384.359)" stroke="#FEF97A" stroke-linecap="round" stroke-linejoin="round"/>
<line x1="0.5" y1="-0.5" x2="11.5674" y2="-0.5" transform="matrix(0.997865 -0.0653071 0.070027 0.997545 379.495 370.066)" stroke="#FEF97A" stroke-linecap="round" stroke-linejoin="round"/>
<defs>
<linearGradient id="paint0_linear_1503_313" x1="257.457" y1="57.9658" x2="257.457" y2="429.049" gradientUnits="userSpaceOnUse">
<stop stop-color="#00B8F0"/>
<stop offset="0.0001" stop-color="#00B8F0"/>
<stop offset="0.739583" stop-color="#B2EEFC"/>
</linearGradient>
<linearGradient id="paint1_linear_1503_313" x1="340.778" y1="416.252" x2="340.778" y2="450.241" gradientUnits="userSpaceOnUse">
<stop stop-color="#00B8F0"/>
<stop offset="0.0001" stop-color="#00B8F0"/>
<stop offset="0.739583" stop-color="#B2EEFC"/>
</linearGradient>
<linearGradient id="paint2_linear_1503_313" x1="54.5889" y1="112.479" x2="54.5889" y2="128.806" gradientUnits="userSpaceOnUse">
<stop stop-color="#00B8F0"/>
<stop offset="0.0001" stop-color="#00B8F0"/>
<stop offset="0.739583" stop-color="#B2EEFC"/>
</linearGradient>
<linearGradient id="paint3_linear_1503_313" x1="420.546" y1="364.918" x2="420.546" y2="388.909" gradientUnits="userSpaceOnUse">
<stop stop-color="#6FC7A1"/>
<stop offset="1" stop-color="#DBFBDF"/>
</linearGradient>
<clipPath id="clip0_1503_313">
<rect width="23" height="20.7993" fill="white" transform="translate(55.5031 192.669)"/>
</clipPath>
</defs>
</svg>
