<svg width="200" height="182" viewBox="0 0 200 182" fill="none" xmlns="http://www.w3.org/2000/svg">
<mask id="mask0_1503_1787" style="mask-type:alpha" maskUnits="userSpaceOnUse" x="0" y="0" width="114" height="132">
<path d="M56.7017 131.022C53.8512 131.022 51.9516 130.16 51.7249 130.076C51.1662 129.874 0 109.644 0 47.5541V2.18186C0 1.08798 0.906875 0.200195 2.02427 0.200195H111.335C112.453 0.200195 113.359 1.27847 113.359 2.18186V47.5541C113.359 106.208 67.9454 127.504 62.4488 129.855C62.0776 130.013 61.7309 130.175 61.3435 130.288C60.3027 130.594 58.1507 131.022 56.7017 131.022Z" fill="white"/>
</mask>
<g mask="url(#mask0_1503_1787)">
<path d="M132.301 22.1849L156.416 40.29C162.11 45.1378 163.742 52.5955 157 57.778L66.2463 160.064C62.8486 163.389 61.0156 165.383 56.8703 165.495L56.3283 84.6774L112.998 23.9546C116.976 18.8465 126.607 17.337 132.301 22.1849Z" fill="url(#paint0_linear_1503_1787)"/>
<path d="M-19.9371 23.0079L-43.808 41.3724C-49.4365 46.2815 -50.9683 53.7562 -44.1572 58.8655L47.962 160.163C51.404 163.451 53.2637 165.425 57.4102 165.492L56.8682 84.6746L-0.611654 24.5688C-4.65839 19.5041 -14.3086 18.0989 -19.9371 23.0079Z" fill="url(#paint1_linear_1503_1787)"/>
<path d="M131.876 -41.3688L155.991 -23.2637C161.685 -18.4159 163.317 -10.9582 156.575 -5.77572L65.8211 96.5102C62.4234 99.8351 60.5904 101.83 56.4451 101.941L55.9031 21.1237L112.573 -39.5991C116.551 -44.7072 126.182 -46.2167 131.876 -41.3688Z" fill="url(#paint2_linear_1503_1787)"/>
<path d="M-20.3634 -40.5458L-44.2344 -22.1813C-49.8628 -17.2722 -51.3946 -9.79746 -44.5836 -4.68824L47.5356 96.6091C50.9777 99.8971 52.8373 101.872 56.9838 101.938L56.4418 21.1209L-1.03802 -38.9849C-5.08475 -44.0496 -14.735 -45.4548 -20.3634 -40.5458Z" fill="url(#paint3_linear_1503_1787)"/>
<path d="M131.465 -102.508L155.581 -84.4034C161.275 -79.5555 162.907 -72.0979 156.164 -66.9154L65.4105 35.3705C62.0128 38.6954 60.1798 40.6899 56.0345 40.8014L55.4925 -40.0159L112.162 -100.739C116.141 -105.847 125.771 -107.356 131.465 -102.508Z" fill="url(#paint4_linear_1503_1787)"/>
<path d="M-20.7734 -101.685L-44.6444 -83.3209C-50.2728 -78.4119 -51.8046 -70.9371 -44.9936 -65.8279L47.1256 35.4695C50.5677 38.7574 52.4273 40.7319 56.5738 40.7986L56.0318 -40.0187L-1.44802 -100.125C-5.49475 -105.189 -15.145 -106.594 -20.7734 -101.685Z" fill="url(#paint5_linear_1503_1787)"/>
</g>
<g clip-path="url(#clip0_1503_1787)">
<path d="M155 116.453H143.722V54.99C143.722 48.0286 140.959 41.3523 136.041 36.4298C131.124 31.5073 124.454 28.7419 117.5 28.7419C110.545 28.7419 103.875 31.5073 98.9579 36.4298C94.0403 41.3523 91.2776 48.0286 91.2776 54.99V116.453H79.9996V54.99C79.9996 45.0345 83.9505 35.4867 90.9831 28.4471C98.0157 21.4075 107.554 17.4526 117.5 17.4526C127.445 17.4526 136.984 21.4075 144.016 28.4471C151.049 35.4867 155 45.0345 155 54.99V116.453Z" fill="url(#paint6_linear_1503_1787)"/>
<g opacity="0.4">
<path opacity="0.4" d="M154.916 116.406H143.607V54.8668C143.607 47.8967 140.837 41.2121 135.906 36.2835C130.975 31.3549 124.287 28.586 117.313 28.586C110.339 28.586 103.651 31.3549 98.7202 36.2835C93.7891 41.2121 91.0188 47.8967 91.0188 54.8668V116.406H79.7098V54.8668C79.7098 44.8989 83.6715 35.3392 90.7235 28.2908C97.7755 21.2425 107.34 17.2827 117.313 17.2827C127.286 17.2827 136.85 21.2425 143.902 28.2908C150.954 35.3392 154.916 44.8989 154.916 54.8668V116.406Z" fill="url(#paint7_linear_1503_1787)"/>
</g>
<path d="M162.758 89.4526H72.2413C69.3464 89.4526 66.9996 91.8069 66.9996 94.7109V149.194C66.9996 152.098 69.3464 154.453 72.2413 154.453H162.758C165.653 154.453 168 152.098 168 149.194V94.7109C168 91.8069 165.653 89.4526 162.758 89.4526Z" fill="url(#paint8_linear_1503_1787)"/>
<g opacity="0.5">
<path d="M125.788 113.057C125.789 111.481 125.35 109.936 124.52 108.595C123.691 107.255 122.503 106.172 121.092 105.47C119.68 104.767 118.1 104.472 116.53 104.617C114.96 104.763 113.462 105.343 112.203 106.294C110.945 107.244 109.977 108.526 109.408 109.996C108.84 111.466 108.692 113.066 108.983 114.615C109.274 116.164 109.992 117.601 111.056 118.765C112.119 119.929 113.487 120.773 115.004 121.202V133.872H119.622V121.202C121.398 120.702 122.962 119.636 124.075 118.166C125.188 116.695 125.79 114.901 125.788 113.057Z" fill="#2D3238"/>
</g>
<path d="M7.16577 151.445C9.02926 151.445 10.5399 149.935 10.5399 148.072C10.5399 146.21 9.02926 144.7 7.16577 144.7C5.30229 144.7 3.79164 146.21 3.79164 148.072C3.79164 149.935 5.30229 151.445 7.16577 151.445Z" fill="url(#paint9_linear_1503_1787)"/>
<path d="M200 41.1488C199.999 41.8155 199.799 42.4667 199.428 43.0203C199.056 43.5738 198.529 44.0049 197.912 44.2589C197.295 44.513 196.617 44.5786 195.963 44.4476C195.309 44.3166 194.709 43.9948 194.237 43.5229C193.766 43.0509 193.446 42.45 193.316 41.796C193.187 41.1421 193.254 40.4644 193.51 39.8486C193.765 39.2328 194.198 38.7066 194.752 38.3364C195.307 37.9661 195.959 37.7686 196.626 37.7686C197.07 37.7686 197.509 37.856 197.919 38.026C198.329 38.196 198.701 38.4451 199.015 38.7591C199.328 39.0731 199.576 39.4458 199.746 39.8558C199.915 40.2659 200.001 40.7053 200 41.1488Z" fill="url(#paint10_linear_1503_1787)"/>
<path d="M30.8708 156.773C30.8708 156.944 30.8203 157.11 30.7256 157.252C30.631 157.393 30.4965 157.503 30.3392 157.569C30.1818 157.634 30.0087 157.651 29.8416 157.618C29.6746 157.584 29.5211 157.502 29.4007 157.382C29.2803 157.262 29.1982 157.108 29.165 156.941C29.1318 156.774 29.1488 156.601 29.214 156.444C29.2792 156.287 29.3896 156.152 29.5312 156.058C29.6728 155.963 29.8393 155.913 30.0096 155.913C30.123 155.912 30.2354 155.933 30.3404 155.976C30.4453 156.019 30.5407 156.082 30.6209 156.162C30.701 156.243 30.7644 156.338 30.8073 156.443C30.8502 156.548 30.8718 156.66 30.8708 156.773Z" fill="url(#paint11_linear_1503_1787)"/>
<path d="M56.9996 59.4526C56.9996 59.6504 56.941 59.8438 56.8311 60.0082C56.7212 60.1727 56.5651 60.3008 56.3823 60.3765C56.1996 60.4522 55.9985 60.472 55.8046 60.4334C55.6106 60.3948 55.4324 60.2996 55.2925 60.1597C55.1527 60.0199 55.0574 59.8417 55.0189 59.6477C54.9803 59.4537 55.0001 59.2527 55.0758 59.07C55.1515 58.8872 55.2796 58.7311 55.4441 58.6212C55.6085 58.5113 55.8019 58.4526 55.9997 58.4526C56.2649 58.4526 56.5192 58.558 56.7068 58.7455C56.8943 58.9331 56.9996 59.1874 56.9996 59.4526Z" fill="url(#paint12_linear_1503_1787)"/>
<path d="M183.067 108.198C183.067 108.368 183.016 108.535 182.922 108.676C182.827 108.818 182.693 108.928 182.535 108.993C182.378 109.058 182.205 109.076 182.038 109.042C181.871 109.009 181.717 108.927 181.597 108.807C181.476 108.686 181.394 108.533 181.361 108.366C181.328 108.199 181.345 108.026 181.41 107.869C181.475 107.711 181.586 107.577 181.727 107.482C181.869 107.388 182.035 107.337 182.206 107.337C182.319 107.336 182.432 107.358 182.537 107.401C182.641 107.444 182.737 107.507 182.817 107.587C182.897 107.667 182.961 107.763 183.003 107.868C183.046 107.972 183.068 108.085 183.067 108.198Z" fill="url(#paint13_linear_1503_1787)"/>
<path d="M194.966 68.222C194.968 68.3926 194.919 68.5597 194.825 68.7023C194.731 68.8449 194.597 68.9564 194.44 69.0228C194.283 69.0891 194.11 69.1073 193.942 69.075C193.775 69.0426 193.62 68.9613 193.499 68.8412C193.378 68.7212 193.295 68.5678 193.261 68.4007C193.227 68.2335 193.244 68.06 193.309 67.9023C193.374 67.7446 193.484 67.6097 193.626 67.5148C193.768 67.4198 193.935 67.3691 194.105 67.3691C194.332 67.3691 194.55 67.4587 194.711 67.6185C194.873 67.7782 194.964 67.9951 194.966 68.222Z" fill="url(#paint14_linear_1503_1787)"/>
</g>
<defs>
<linearGradient id="paint0_linear_1503_1787" x1="106.207" y1="19.7034" x2="110.092" y2="164.063" gradientUnits="userSpaceOnUse">
<stop stop-color="#00B8F0"/>
<stop offset="0.0001" stop-color="#00B8F0"/>
<stop offset="0.739583" stop-color="#B2EEFC"/>
</linearGradient>
<linearGradient id="paint1_linear_1503_1787" x1="6.12138" y1="20.2445" x2="3.79797" y2="164.629" gradientUnits="userSpaceOnUse">
<stop stop-color="#00B8F0"/>
<stop offset="0.0001" stop-color="#00B8F0"/>
<stop offset="0.739583" stop-color="#B2EEFC"/>
</linearGradient>
<linearGradient id="paint2_linear_1503_1787" x1="105.782" y1="-43.8503" x2="109.667" y2="100.509" gradientUnits="userSpaceOnUse">
<stop stop-color="#00B8F0"/>
<stop offset="0.0001" stop-color="#00B8F0"/>
<stop offset="0.739583" stop-color="#B2EEFC"/>
</linearGradient>
<linearGradient id="paint3_linear_1503_1787" x1="5.69501" y1="-43.3092" x2="3.37161" y2="101.076" gradientUnits="userSpaceOnUse">
<stop stop-color="#00B8F0"/>
<stop offset="0.0001" stop-color="#00B8F0"/>
<stop offset="0.739583" stop-color="#B2EEFC"/>
</linearGradient>
<linearGradient id="paint4_linear_1503_1787" x1="105.372" y1="-104.99" x2="109.256" y2="39.3693" gradientUnits="userSpaceOnUse">
<stop stop-color="#00B8F0"/>
<stop offset="0.0001" stop-color="#00B8F0"/>
<stop offset="0.739583" stop-color="#B2EEFC"/>
</linearGradient>
<linearGradient id="paint5_linear_1503_1787" x1="5.28501" y1="-104.449" x2="2.96161" y2="39.9359" gradientUnits="userSpaceOnUse">
<stop stop-color="#00B8F0"/>
<stop offset="0.0001" stop-color="#00B8F0"/>
<stop offset="0.739583" stop-color="#B2EEFC"/>
</linearGradient>
<linearGradient id="paint6_linear_1503_1787" x1="117.5" y1="17.4526" x2="117.5" y2="116.453" gradientUnits="userSpaceOnUse">
<stop stop-color="#6FC7A1"/>
<stop offset="1" stop-color="#DBFBDF"/>
</linearGradient>
<linearGradient id="paint7_linear_1503_1787" x1="117.313" y1="17.2827" x2="117.313" y2="116.406" gradientUnits="userSpaceOnUse">
<stop stop-color="#6FC7A1"/>
<stop offset="1" stop-color="#DBFBDF"/>
</linearGradient>
<linearGradient id="paint8_linear_1503_1787" x1="117.5" y1="89.4526" x2="117.5" y2="154.453" gradientUnits="userSpaceOnUse">
<stop stop-color="#19C6C8"/>
<stop offset="1" stop-color="#6FC7A1"/>
</linearGradient>
<linearGradient id="paint9_linear_1503_1787" x1="7.16577" y1="144.7" x2="7.16577" y2="151.445" gradientUnits="userSpaceOnUse">
<stop stop-color="#1792C7"/>
<stop offset="1" stop-color="#00B8F0"/>
</linearGradient>
<linearGradient id="paint10_linear_1503_1787" x1="196.626" y1="37.7686" x2="196.626" y2="44.5134" gradientUnits="userSpaceOnUse">
<stop stop-color="#1792C7"/>
<stop offset="1" stop-color="#00B8F0"/>
</linearGradient>
<linearGradient id="paint11_linear_1503_1787" x1="30.0096" y1="155.913" x2="30.0096" y2="157.634" gradientUnits="userSpaceOnUse">
<stop stop-color="#1792C7"/>
<stop offset="1" stop-color="#00B8F0"/>
</linearGradient>
<linearGradient id="paint12_linear_1503_1787" x1="55.9996" y1="58.4526" x2="55.9996" y2="60.4526" gradientUnits="userSpaceOnUse">
<stop stop-color="#1792C7"/>
<stop offset="1" stop-color="#00B8F0"/>
</linearGradient>
<linearGradient id="paint13_linear_1503_1787" x1="182.206" y1="107.337" x2="182.206" y2="109.059" gradientUnits="userSpaceOnUse">
<stop stop-color="#1792C7"/>
<stop offset="1" stop-color="#00B8F0"/>
</linearGradient>
<linearGradient id="paint14_linear_1503_1787" x1="194.105" y1="67.3691" x2="194.105" y2="69.0905" gradientUnits="userSpaceOnUse">
<stop stop-color="#1792C7"/>
<stop offset="1" stop-color="#00B8F0"/>
</linearGradient>
<clipPath id="clip0_1503_1787">
<rect width="196.209" height="170.616" fill="white" transform="translate(3.79128 10.4521)"/>
</clipPath>
</defs>
</svg>
