<svg viewBox="0 0 422 361" fill="none" xmlns="http://www.w3.org/2000/svg">
<mask id="mask0_1503_440" style="mask-type:alpha" maskUnits="userSpaceOnUse" x="0" y="0" width="207" height="240">
<path d="M103.443 239.501C98.2427 239.501 94.7771 237.927 94.3635 237.776C93.3443 237.407 0 200.5 0 87.2273V4.45312C0 2.45751 1.65444 0.837891 3.69295 0.837891H203.113C205.151 0.837891 206.805 2.80503 206.805 4.45312V87.2273C206.805 194.017 124.288 232.926 113.989 237.345C113.277 237.65 112.6 237.962 111.856 238.178C109.937 238.735 106.061 239.501 103.443 239.501Z" fill="white"/>
</mask>
<g mask="url(#mask0_1503_440)">
<path d="M241.362 40.9428L285.357 73.9725C295.745 82.8166 298.722 96.4219 286.422 105.876L120.856 292.48C114.658 298.546 111.314 302.185 103.751 302.388L102.763 154.95L206.147 44.1713C213.405 34.8524 230.975 32.0987 241.362 40.9428Z" fill="url(#paint0_linear_1503_440)"/>
<path d="M-36.3717 42.4443L-79.9203 75.9473C-90.1885 84.903 -92.983 98.5395 -80.5574 107.86L87.4989 292.661C93.7783 298.659 97.1709 302.261 104.736 302.383L103.747 154.945L-1.11568 45.2919C-8.49826 36.0521 -26.1035 33.4886 -36.3717 42.4443Z" fill="url(#paint1_linear_1503_440)"/>
<path d="M240.585 -74.9986L284.58 -41.9689C294.968 -33.1248 297.945 -19.5195 285.645 -10.0649L120.079 176.539C113.881 182.605 110.537 186.243 102.974 186.447L101.986 39.0087L205.37 -71.7701C212.628 -81.089 230.198 -83.8427 240.585 -74.9986Z" fill="url(#paint2_linear_1503_440)"/>
<path d="M-37.1494 -73.4966L-80.698 -39.9937C-90.9662 -31.0379 -93.7607 -17.4014 -81.3351 -8.08046L86.7212 176.72C93.0006 182.718 96.3932 186.32 103.958 186.442L102.969 39.0041L-1.89339 -70.649C-9.27597 -79.8888 -26.8812 -82.4524 -37.1494 -73.4966Z" fill="url(#paint3_linear_1503_440)"/>
<path d="M239.837 -186.538L283.832 -153.508C294.219 -144.664 297.197 -131.059 284.897 -121.604L119.331 64.9998C113.133 71.0655 109.789 74.7041 102.226 74.9076L101.238 -72.5304L204.622 -183.309C211.88 -192.628 229.45 -195.382 239.837 -186.538Z" fill="url(#paint4_linear_1503_440)"/>
<path d="M-37.8972 -185.036L-81.4458 -151.533C-91.714 -142.577 -94.5085 -128.94 -82.0829 -119.62L85.9734 65.1808C92.2528 71.1791 95.6454 74.7812 103.21 74.9029L102.221 -72.535L-2.64119 -182.188C-10.0238 -191.428 -27.629 -193.991 -37.8972 -185.036Z" fill="url(#paint5_linear_1503_440)"/>
</g>
<path d="M282.618 212.836H261.987V100.568C261.987 87.8521 256.933 75.6571 247.937 66.6657C238.941 57.6742 226.739 52.6229 214.017 52.6229C201.295 52.6229 189.094 57.6742 180.098 66.6657C171.102 75.6571 166.048 87.8521 166.048 100.568V212.836H145.416V100.568C145.416 82.3831 152.644 64.9431 165.509 52.0844C178.374 39.2258 195.823 32.002 214.017 32.002C232.211 32.002 249.66 39.2258 262.525 52.0844C275.39 64.9431 282.618 82.3831 282.618 100.568V212.836Z" fill="url(#paint6_linear_1503_440)"/>
<g opacity="0.4">
<path opacity="0.4" d="M282.618 212.836H261.987V100.568C261.987 87.8521 256.933 75.6571 247.937 66.6657C238.941 57.6742 226.739 52.6229 214.017 52.6229C201.295 52.6229 189.094 57.6742 180.098 66.6657C171.102 75.6571 166.048 87.8521 166.048 100.568V212.836H145.416V100.568C145.416 82.3831 152.644 64.9431 165.509 52.0844C178.374 39.2258 195.823 32.002 214.017 32.002C232.211 32.002 249.66 39.2258 262.525 52.0844C275.39 64.9431 282.618 82.3831 282.618 100.568V212.836Z" fill="url(#paint7_linear_1503_440)"/>
</g>
<path d="M296.89 162.876H131.161C125.861 162.876 121.564 167.171 121.564 172.469V271.859C121.564 277.156 125.861 281.451 131.161 281.451H296.89C302.19 281.451 306.487 277.156 306.487 271.859V172.469C306.487 167.171 302.19 162.876 296.89 162.876Z" fill="url(#paint8_linear_1503_440)"/>
<g opacity="0.5">
<path d="M229.478 206.727C229.48 203.851 228.679 201.032 227.166 198.587C225.652 196.142 223.486 194.167 220.911 192.885C218.336 191.603 215.454 191.064 212.589 191.33C209.725 191.595 206.991 192.654 204.696 194.388C202.4 196.122 200.635 198.461 199.597 201.143C198.559 203.825 198.291 206.743 198.821 209.569C199.352 212.395 200.662 215.017 202.602 217.14C204.542 219.263 207.037 220.802 209.805 221.586V244.7H218.229V221.586C221.469 220.675 224.322 218.729 226.353 216.047C228.384 213.364 229.482 210.091 229.478 206.727Z" fill="#2D3238"/>
</g>
<path d="M15.1194 297.994C19.0514 297.994 22.2388 294.808 22.2388 290.878C22.2388 286.949 19.0514 283.763 15.1194 283.763C11.1875 283.763 8 286.949 8 290.878C8 294.808 11.1875 297.994 15.1194 297.994Z" fill="url(#paint9_linear_1503_440)"/>
<path d="M422 65.2695C421.997 66.6762 421.576 68.0503 420.792 69.2183C420.008 70.3864 418.895 71.2958 417.594 71.8319C416.292 72.3679 414.861 72.5065 413.482 72.2301C412.102 71.9536 410.835 71.2746 409.841 70.2788C408.847 69.283 408.17 68.015 407.897 66.6352C407.623 65.2553 407.765 63.8254 408.305 62.5261C408.844 61.2268 409.757 60.1165 410.927 59.3353C412.097 58.5541 413.473 58.1372 414.881 58.1372C415.817 58.1372 416.744 58.3218 417.609 58.6804C418.474 59.0391 419.259 59.5647 419.921 60.2272C420.582 60.8897 421.106 61.6761 421.463 62.5414C421.82 63.4066 422.002 64.3337 422 65.2695Z" fill="url(#paint10_linear_1503_440)"/>
<path d="M65.1371 309.238C65.1371 309.597 65.0305 309.948 64.8309 310.247C64.6312 310.545 64.3474 310.778 64.0154 310.915C63.6834 311.053 63.3181 311.089 62.9656 311.019C62.6131 310.949 62.2894 310.776 62.0352 310.522C61.7811 310.268 61.6081 309.944 61.538 309.592C61.4679 309.24 61.5038 308.874 61.6414 308.543C61.7789 308.211 62.0118 307.927 62.3106 307.728C62.6094 307.528 62.9607 307.421 63.3201 307.421C63.5593 307.419 63.7966 307.465 64.018 307.555C64.2395 307.646 64.4407 307.779 64.6098 307.948C64.779 308.118 64.9127 308.319 65.0033 308.54C65.0938 308.761 65.1393 308.998 65.1371 309.238Z" fill="url(#paint11_linear_1503_440)"/>
<path d="M103.807 109.78C103.807 110.14 103.7 110.491 103.5 110.789C103.301 111.088 103.017 111.321 102.685 111.458C102.353 111.596 101.987 111.632 101.635 111.562C101.283 111.492 100.959 111.319 100.705 111.065C100.451 110.811 100.278 110.487 100.207 110.135C100.137 109.782 100.173 109.417 100.311 109.085C100.448 108.754 100.681 108.47 100.98 108.27C101.279 108.071 101.63 107.964 101.99 107.964C102.471 107.964 102.934 108.156 103.274 108.496C103.615 108.837 103.807 109.299 103.807 109.78Z" fill="url(#paint12_linear_1503_440)"/>
<path d="M386.271 206.743C386.271 207.103 386.164 207.454 385.965 207.752C385.765 208.051 385.481 208.284 385.149 208.421C384.817 208.559 384.452 208.595 384.099 208.525C383.747 208.455 383.423 208.282 383.169 208.028C382.915 207.774 382.742 207.45 382.672 207.098C382.602 206.745 382.638 206.38 382.775 206.048C382.913 205.717 383.145 205.433 383.444 205.233C383.743 205.034 384.094 204.927 384.454 204.927C384.693 204.925 384.93 204.971 385.152 205.061C385.373 205.152 385.574 205.285 385.743 205.454C385.913 205.623 386.046 205.824 386.137 206.046C386.227 206.267 386.273 206.504 386.271 206.743Z" fill="url(#paint13_linear_1503_440)"/>
<path d="M411.379 122.394C411.382 122.754 411.278 123.107 411.081 123.408C410.883 123.709 410.6 123.944 410.269 124.084C409.937 124.224 409.571 124.262 409.217 124.194C408.864 124.126 408.539 123.954 408.283 123.701C408.027 123.448 407.852 123.124 407.781 122.771C407.709 122.419 407.744 122.053 407.881 121.72C408.018 121.387 408.251 121.102 408.55 120.902C408.85 120.702 409.202 120.595 409.562 120.595C410.041 120.595 410.5 120.784 410.841 121.121C411.181 121.458 411.374 121.916 411.379 122.394Z" fill="url(#paint14_linear_1503_440)"/>
<defs>
<linearGradient id="paint0_linear_1503_440" x1="193.759" y1="36.4157" x2="200.846" y2="299.775" gradientUnits="userSpaceOnUse">
<stop stop-color="#00B8F0"/>
<stop offset="0.0001" stop-color="#00B8F0"/>
<stop offset="0.739583" stop-color="#B2EEFC"/>
</linearGradient>
<linearGradient id="paint1_linear_1503_440" x1="11.1676" y1="37.4029" x2="6.92895" y2="300.809" gradientUnits="userSpaceOnUse">
<stop stop-color="#00B8F0"/>
<stop offset="0.0001" stop-color="#00B8F0"/>
<stop offset="0.739583" stop-color="#B2EEFC"/>
</linearGradient>
<linearGradient id="paint2_linear_1503_440" x1="192.982" y1="-79.5257" x2="200.069" y2="183.834" gradientUnits="userSpaceOnUse">
<stop stop-color="#00B8F0"/>
<stop offset="0.0001" stop-color="#00B8F0"/>
<stop offset="0.739583" stop-color="#B2EEFC"/>
</linearGradient>
<linearGradient id="paint3_linear_1503_440" x1="10.3899" y1="-78.538" x2="6.15124" y2="184.868" gradientUnits="userSpaceOnUse">
<stop stop-color="#00B8F0"/>
<stop offset="0.0001" stop-color="#00B8F0"/>
<stop offset="0.739583" stop-color="#B2EEFC"/>
</linearGradient>
<linearGradient id="paint4_linear_1503_440" x1="192.234" y1="-191.065" x2="199.321" y2="72.2948" gradientUnits="userSpaceOnUse">
<stop stop-color="#00B8F0"/>
<stop offset="0.0001" stop-color="#00B8F0"/>
<stop offset="0.739583" stop-color="#B2EEFC"/>
</linearGradient>
<linearGradient id="paint5_linear_1503_440" x1="9.64211" y1="-190.077" x2="5.40344" y2="73.3291" gradientUnits="userSpaceOnUse">
<stop stop-color="#00B8F0"/>
<stop offset="0.0001" stop-color="#00B8F0"/>
<stop offset="0.739583" stop-color="#B2EEFC"/>
</linearGradient>
<linearGradient id="paint6_linear_1503_440" x1="214.017" y1="32.002" x2="214.017" y2="212.836" gradientUnits="userSpaceOnUse">
<stop stop-color="#6FC7A1"/>
<stop offset="1" stop-color="#DBFBDF"/>
</linearGradient>
<linearGradient id="paint7_linear_1503_440" x1="214.017" y1="32.002" x2="214.017" y2="212.836" gradientUnits="userSpaceOnUse">
<stop stop-color="#6FC7A1"/>
<stop offset="1" stop-color="#DBFBDF"/>
</linearGradient>
<linearGradient id="paint8_linear_1503_440" x1="214.025" y1="162.876" x2="214.025" y2="281.451" gradientUnits="userSpaceOnUse">
<stop stop-color="#19C6C8"/>
<stop offset="1" stop-color="#6FC7A1"/>
</linearGradient>
<linearGradient id="paint9_linear_1503_440" x1="15.1194" y1="283.763" x2="15.1194" y2="297.994" gradientUnits="userSpaceOnUse">
<stop stop-color="#1792C7"/>
<stop offset="1" stop-color="#00B8F0"/>
</linearGradient>
<linearGradient id="paint10_linear_1503_440" x1="414.881" y1="58.1372" x2="414.881" y2="72.3688" gradientUnits="userSpaceOnUse">
<stop stop-color="#1792C7"/>
<stop offset="1" stop-color="#00B8F0"/>
</linearGradient>
<linearGradient id="paint11_linear_1503_440" x1="63.3201" y1="307.421" x2="63.3201" y2="311.054" gradientUnits="userSpaceOnUse">
<stop stop-color="#1792C7"/>
<stop offset="1" stop-color="#00B8F0"/>
</linearGradient>
<linearGradient id="paint12_linear_1503_440" x1="101.99" y1="107.964" x2="101.99" y2="111.597" gradientUnits="userSpaceOnUse">
<stop stop-color="#1792C7"/>
<stop offset="1" stop-color="#00B8F0"/>
</linearGradient>
<linearGradient id="paint13_linear_1503_440" x1="384.454" y1="204.927" x2="384.454" y2="208.56" gradientUnits="userSpaceOnUse">
<stop stop-color="#1792C7"/>
<stop offset="1" stop-color="#00B8F0"/>
</linearGradient>
<linearGradient id="paint14_linear_1503_440" x1="409.562" y1="120.595" x2="409.562" y2="124.227" gradientUnits="userSpaceOnUse">
<stop stop-color="#1792C7"/>
<stop offset="1" stop-color="#00B8F0"/>
</linearGradient>
</defs>
</svg>
