<svg width="200" height="181" viewBox="0 0 200 181" fill="none" xmlns="http://www.w3.org/2000/svg">
<mask id="mask0_1503_2913" style="mask-type:alpha" maskUnits="userSpaceOnUse" x="0" y="0" width="114" height="131">
<path d="M56.7017 130.822C53.8512 130.822 51.9516 129.959 51.7249 129.876C51.1662 129.674 0 109.444 0 47.3539V1.98167C0 0.887787 0.906875 0 2.02427 0H111.335C112.453 0 113.359 1.07828 113.359 1.98167V47.3539C113.359 106.008 67.9454 127.304 62.4488 129.654C62.0776 129.813 61.7309 129.974 61.3435 130.088C60.3027 130.394 58.1507 130.822 56.7017 130.822Z" fill="white"/>
</mask>
<g mask="url(#mask0_1503_2913)">
<path d="M132.301 21.9847L156.417 40.0898C162.11 44.9376 163.742 52.3953 157 57.5778L66.2464 159.864C62.8487 163.189 61.0157 165.183 56.8704 165.295L56.3284 84.4772L112.998 23.7544C116.977 18.6463 126.607 17.1368 132.301 21.9847Z" fill="url(#paint0_linear_1503_2913)"/>
<path d="M-19.9371 22.8077L-43.808 41.1722C-49.4365 46.0813 -50.9683 53.5561 -44.1572 58.6653L47.962 159.963C51.404 163.251 53.2637 165.225 57.4102 165.292L56.8682 84.4744L-0.611654 24.3686C-4.65839 19.3039 -14.3086 17.8987 -19.9371 22.8077Z" fill="url(#paint1_linear_1503_2913)"/>
<path d="M131.876 -41.569L155.991 -23.4639C161.685 -18.6161 163.317 -11.1584 156.575 -5.97592L65.8211 96.31C62.4235 99.6349 60.5904 101.629 56.4451 101.741L55.9032 20.9235L112.573 -39.7993C116.551 -44.9074 126.182 -46.4169 131.876 -41.569Z" fill="url(#paint2_linear_1503_2913)"/>
<path d="M-20.3633 -40.746L-44.2343 -22.3815C-49.8627 -17.4724 -51.3946 -9.99766 -44.5835 -4.88843L47.5357 96.4089C50.9778 99.6969 52.8374 101.671 56.9839 101.738L56.4419 20.9207L-1.03792 -39.1851C-5.08466 -44.2498 -14.7349 -45.655 -20.3633 -40.746Z" fill="url(#paint3_linear_1503_2913)"/>
<path d="M131.465 -102.709L155.581 -84.6036C161.275 -79.7557 162.907 -72.2981 156.164 -67.1156L65.4105 35.1703C62.0128 38.4952 60.1798 40.4897 56.0345 40.6012L55.4925 -40.2161L112.162 -100.939C116.141 -106.047 125.771 -107.557 131.465 -102.709Z" fill="url(#paint4_linear_1503_2913)"/>
<path d="M-20.7735 -101.886L-44.6444 -83.5211C-50.2729 -78.6121 -51.8047 -71.1373 -44.9936 -66.0281L47.1256 35.2693C50.5676 38.5572 52.4272 40.5317 56.5737 40.5984L56.0318 -40.2189L-1.44808 -100.325C-5.49481 -105.389 -15.145 -106.795 -20.7735 -101.886Z" fill="url(#paint5_linear_1503_2913)"/>
</g>
<g clip-path="url(#clip0_1503_2913)">
<path d="M155 116.252H143.722V54.7898C143.722 47.8284 140.959 41.1521 136.042 36.2296C131.124 31.3071 124.454 28.5417 117.5 28.5417C110.545 28.5417 103.876 31.3071 98.958 36.2296C94.0404 41.1521 91.2777 47.8284 91.2777 54.7898V116.252H79.9998V54.7898C79.9998 44.8343 83.9506 35.2865 90.9833 28.2469C98.0159 21.2073 107.554 17.2524 117.5 17.2524C127.445 17.2524 136.984 21.2073 144.016 28.2469C151.049 35.2865 155 44.8343 155 54.7898V116.252Z" fill="url(#paint6_linear_1503_2913)"/>
<g opacity="0.4">
<path opacity="0.4" d="M154.916 116.206H143.607V54.6666C143.607 47.6965 140.837 41.0119 135.906 36.0833C130.975 31.1547 124.287 28.3858 117.313 28.3858C110.34 28.3858 103.651 31.1547 98.7204 36.0833C93.7893 41.0119 91.019 47.6965 91.019 54.6666V116.206H79.71V54.6666C79.71 44.6987 83.6717 35.139 90.7237 28.0906C97.7756 21.0423 107.34 17.0825 117.313 17.0825C127.286 17.0825 136.851 21.0423 143.903 28.0906C150.955 35.139 154.916 44.6987 154.916 54.6666V116.206Z" fill="url(#paint7_linear_1503_2913)"/>
</g>
<path d="M162.758 89.2524H72.2415C69.3465 89.2524 66.9998 91.6067 66.9998 94.5107V148.994C66.9998 151.898 69.3465 154.252 72.2415 154.252H162.758C165.653 154.252 168 151.898 168 148.994V94.5107C168 91.6067 165.653 89.2524 162.758 89.2524Z" fill="url(#paint8_linear_1503_2913)"/>
<g opacity="0.5">
<path d="M125.788 112.857C125.789 111.281 125.35 109.736 124.52 108.395C123.691 107.055 122.503 105.972 121.092 105.269C119.68 104.567 118.1 104.272 116.53 104.417C114.96 104.563 113.462 105.143 112.203 106.093C110.945 107.044 109.977 108.326 109.408 109.796C108.84 111.266 108.692 112.866 108.983 114.415C109.274 115.964 109.992 117.401 111.056 118.565C112.119 119.728 113.487 120.572 115.004 121.002V133.672H119.622V121.002C121.398 120.502 122.962 119.436 124.075 117.965C125.188 116.495 125.79 114.701 125.788 112.857Z" fill="#2D3238"/>
</g>
<path d="M7.16588 151.244C9.02936 151.244 10.54 149.734 10.54 147.872C10.54 146.009 9.02936 144.5 7.16588 144.5C5.3024 144.5 3.79175 146.009 3.79175 147.872C3.79175 149.734 5.3024 151.244 7.16588 151.244Z" fill="url(#paint9_linear_1503_2913)"/>
<path d="M200 40.9486C199.999 41.6153 199.799 42.2665 199.428 42.8201C199.056 43.3736 198.529 43.8047 197.912 44.0587C197.295 44.3128 196.617 44.3784 195.963 44.2474C195.309 44.1164 194.709 43.7946 194.237 43.3227C193.766 42.8507 193.446 42.2498 193.316 41.5958C193.187 40.9419 193.254 40.2642 193.51 39.6484C193.765 39.0326 194.198 38.5064 194.752 38.1362C195.307 37.766 195.959 37.5684 196.626 37.5684C197.07 37.5684 197.509 37.6558 197.919 37.8258C198.329 37.9958 198.701 38.2449 199.015 38.5589C199.328 38.8729 199.576 39.2456 199.746 39.6556C199.915 40.0657 200.001 40.5051 200 40.9486Z" fill="url(#paint10_linear_1503_2913)"/>
<path d="M30.871 156.573C30.871 156.743 30.8205 156.91 30.7258 157.051C30.6312 157.193 30.4967 157.303 30.3394 157.368C30.182 157.433 30.0089 157.451 29.8418 157.417C29.6748 157.384 29.5213 157.302 29.4009 157.182C29.2805 157.061 29.1985 156.908 29.1652 156.741C29.132 156.574 29.1491 156.401 29.2142 156.244C29.2794 156.087 29.3898 155.952 29.5314 155.858C29.673 155.763 29.8395 155.712 30.0098 155.712C30.1232 155.711 30.2357 155.733 30.3406 155.776C30.4456 155.819 30.5409 155.882 30.6211 155.962C30.7013 156.042 30.7646 156.138 30.8076 156.243C30.8505 156.347 30.872 156.46 30.871 156.573Z" fill="url(#paint11_linear_1503_2913)"/>
<path d="M56.9998 59.2524C56.9998 59.4502 56.9411 59.6436 56.8312 59.808C56.7213 59.9725 56.5652 60.1006 56.3824 60.1763C56.1997 60.252 55.9986 60.2718 55.8047 60.2332C55.6107 60.1946 55.4325 60.0994 55.2926 59.9595C55.1528 59.8197 55.0576 59.6415 55.019 59.4475C54.9804 59.2536 55.0002 59.0525 55.0759 58.8698C55.1516 58.687 55.2797 58.5309 55.4442 58.421C55.6086 58.3111 55.802 58.2524 55.9998 58.2524C56.265 58.2524 56.5193 58.3578 56.7069 58.5453C56.8944 58.7329 56.9998 58.9872 56.9998 59.2524Z" fill="url(#paint12_linear_1503_2913)"/>
<path d="M183.067 107.998C183.067 108.168 183.017 108.335 182.922 108.476C182.827 108.618 182.693 108.728 182.535 108.793C182.378 108.858 182.205 108.875 182.038 108.842C181.871 108.809 181.717 108.727 181.597 108.607C181.477 108.486 181.395 108.333 181.361 108.166C181.328 107.999 181.345 107.826 181.41 107.669C181.475 107.511 181.586 107.377 181.727 107.282C181.869 107.188 182.036 107.137 182.206 107.137C182.319 107.136 182.432 107.158 182.537 107.201C182.642 107.244 182.737 107.307 182.817 107.387C182.897 107.467 182.961 107.562 183.004 107.667C183.047 107.772 183.068 107.885 183.067 107.998Z" fill="url(#paint13_linear_1503_2913)"/>
<path d="M194.966 68.0218C194.968 68.1924 194.919 68.3596 194.825 68.5021C194.731 68.6447 194.597 68.7562 194.44 68.8226C194.283 68.8889 194.11 68.9071 193.942 68.8748C193.775 68.8424 193.62 68.7611 193.499 68.641C193.378 68.521 193.295 68.3676 193.261 68.2005C193.227 68.0333 193.244 67.8598 193.309 67.7021C193.374 67.5444 193.484 67.4095 193.626 67.3146C193.768 67.2196 193.935 67.169 194.105 67.1689C194.332 67.1689 194.55 67.2585 194.711 67.4183C194.873 67.578 194.964 67.7949 194.966 68.0218Z" fill="url(#paint14_linear_1503_2913)"/>
</g>
<defs>
<linearGradient id="paint0_linear_1503_2913" x1="106.207" y1="19.5032" x2="110.092" y2="163.862" gradientUnits="userSpaceOnUse">
<stop stop-color="#00B8F0"/>
<stop offset="0.0001" stop-color="#00B8F0"/>
<stop offset="0.739583" stop-color="#B2EEFC"/>
</linearGradient>
<linearGradient id="paint1_linear_1503_2913" x1="6.12138" y1="20.0443" x2="3.79797" y2="164.429" gradientUnits="userSpaceOnUse">
<stop stop-color="#00B8F0"/>
<stop offset="0.0001" stop-color="#00B8F0"/>
<stop offset="0.739583" stop-color="#B2EEFC"/>
</linearGradient>
<linearGradient id="paint2_linear_1503_2913" x1="105.782" y1="-44.0505" x2="109.667" y2="100.309" gradientUnits="userSpaceOnUse">
<stop stop-color="#00B8F0"/>
<stop offset="0.0001" stop-color="#00B8F0"/>
<stop offset="0.739583" stop-color="#B2EEFC"/>
</linearGradient>
<linearGradient id="paint3_linear_1503_2913" x1="5.69511" y1="-43.5094" x2="3.3717" y2="100.875" gradientUnits="userSpaceOnUse">
<stop stop-color="#00B8F0"/>
<stop offset="0.0001" stop-color="#00B8F0"/>
<stop offset="0.739583" stop-color="#B2EEFC"/>
</linearGradient>
<linearGradient id="paint4_linear_1503_2913" x1="105.372" y1="-105.19" x2="109.256" y2="39.1691" gradientUnits="userSpaceOnUse">
<stop stop-color="#00B8F0"/>
<stop offset="0.0001" stop-color="#00B8F0"/>
<stop offset="0.739583" stop-color="#B2EEFC"/>
</linearGradient>
<linearGradient id="paint5_linear_1503_2913" x1="5.28495" y1="-104.649" x2="2.96155" y2="39.7357" gradientUnits="userSpaceOnUse">
<stop stop-color="#00B8F0"/>
<stop offset="0.0001" stop-color="#00B8F0"/>
<stop offset="0.739583" stop-color="#B2EEFC"/>
</linearGradient>
<linearGradient id="paint6_linear_1503_2913" x1="117.5" y1="17.2524" x2="117.5" y2="116.252" gradientUnits="userSpaceOnUse">
<stop stop-color="#6FC7A1"/>
<stop offset="1" stop-color="#DBFBDF"/>
</linearGradient>
<linearGradient id="paint7_linear_1503_2913" x1="117.313" y1="17.0825" x2="117.313" y2="116.206" gradientUnits="userSpaceOnUse">
<stop stop-color="#6FC7A1"/>
<stop offset="1" stop-color="#DBFBDF"/>
</linearGradient>
<linearGradient id="paint8_linear_1503_2913" x1="117.5" y1="89.2524" x2="117.5" y2="154.252" gradientUnits="userSpaceOnUse">
<stop stop-color="#19C6C8"/>
<stop offset="1" stop-color="#6FC7A1"/>
</linearGradient>
<linearGradient id="paint9_linear_1503_2913" x1="7.16588" y1="144.5" x2="7.16588" y2="151.244" gradientUnits="userSpaceOnUse">
<stop stop-color="#1792C7"/>
<stop offset="1" stop-color="#00B8F0"/>
</linearGradient>
<linearGradient id="paint10_linear_1503_2913" x1="196.626" y1="37.5684" x2="196.626" y2="44.3132" gradientUnits="userSpaceOnUse">
<stop stop-color="#1792C7"/>
<stop offset="1" stop-color="#00B8F0"/>
</linearGradient>
<linearGradient id="paint11_linear_1503_2913" x1="30.0098" y1="155.712" x2="30.0098" y2="157.434" gradientUnits="userSpaceOnUse">
<stop stop-color="#1792C7"/>
<stop offset="1" stop-color="#00B8F0"/>
</linearGradient>
<linearGradient id="paint12_linear_1503_2913" x1="55.9998" y1="58.2524" x2="55.9998" y2="60.2524" gradientUnits="userSpaceOnUse">
<stop stop-color="#1792C7"/>
<stop offset="1" stop-color="#00B8F0"/>
</linearGradient>
<linearGradient id="paint13_linear_1503_2913" x1="182.206" y1="107.137" x2="182.206" y2="108.859" gradientUnits="userSpaceOnUse">
<stop stop-color="#1792C7"/>
<stop offset="1" stop-color="#00B8F0"/>
</linearGradient>
<linearGradient id="paint14_linear_1503_2913" x1="194.105" y1="67.1689" x2="194.105" y2="68.8904" gradientUnits="userSpaceOnUse">
<stop stop-color="#1792C7"/>
<stop offset="1" stop-color="#00B8F0"/>
</linearGradient>
<clipPath id="clip0_1503_2913">
<rect width="196.209" height="170.616" fill="white" transform="translate(3.79126 10.252)"/>
</clipPath>
</defs>
</svg>
